<svg id="svg" version="1.1" xmlns="http://www.w3.org/2000/svg" xmlns:xlink="http://www.w3.org/1999/xlink" width="40" height="40" viewBox="0, 0, 400,400"><g id="svgg"><path id="path0" d="M186.083 51.108 C 185.808 51.138,184.121 51.234,182.333 51.323 C 178.812 51.496,175.556 51.819,171.961 52.349 C 170.703 52.535,169.315 52.720,168.878 52.760 C 168.441 52.800,167.483 52.956,166.750 53.107 C 166.017 53.259,165.229 53.397,165.000 53.416 C 164.771 53.435,163.796 53.617,162.833 53.821 C 161.871 54.025,160.371 54.343,159.500 54.528 C 157.201 55.016,152.861 56.098,150.917 56.667 C 150.367 56.829,149.204 57.167,148.333 57.419 C 144.395 58.558,135.667 61.657,133.083 62.833 C 132.900 62.917,131.700 63.445,130.417 64.006 C 129.133 64.568,127.633 65.243,127.083 65.507 C 125.407 66.310,121.281 68.358,120.758 68.646 C 115.605 71.485,114.039 72.383,111.788 73.792 C 111.166 74.181,110.632 74.500,110.603 74.500 C 110.558 74.500,108.823 75.612,108.000 76.168 C 107.862 76.261,107.150 76.736,106.417 77.225 C 105.683 77.714,104.662 78.407,104.146 78.765 C 103.631 79.124,102.731 79.750,102.146 80.156 C 101.562 80.563,101.008 80.984,100.917 81.091 C 100.825 81.198,100.225 81.646,99.583 82.087 C 98.942 82.528,98.342 82.973,98.250 83.075 C 98.158 83.177,97.296 83.875,96.333 84.626 C 87.993 91.136,78.077 101.068,71.358 109.640 C 69.136 112.476,68.133 113.798,67.375 114.893 C 66.985 115.456,66.562 116.039,66.435 116.189 C 66.191 116.476,65.627 117.303,63.722 120.167 C 61.714 123.186,61.000 124.317,61.000 124.481 C 61.000 124.568,60.944 124.664,60.875 124.694 C 60.773 124.740,60.124 125.789,58.829 128.000 C 57.493 130.282,54.697 135.479,53.896 137.167 C 53.570 137.854,53.129 138.754,52.915 139.167 C 52.575 139.825,52.213 140.626,50.808 143.833 C 50.628 144.246,50.372 144.808,50.239 145.083 C 49.852 145.890,48.244 149.946,47.828 151.167 C 47.750 151.396,47.417 152.296,47.089 153.167 C 45.841 156.475,44.457 160.871,43.337 165.083 C 43.142 165.817,42.833 166.918,42.652 167.531 C 42.470 168.145,42.285 168.932,42.241 169.281 C 42.198 169.631,42.056 170.254,41.926 170.667 C 41.796 171.079,41.644 171.679,41.587 172.000 C 41.531 172.321,41.342 173.258,41.168 174.083 C 40.533 177.099,39.515 182.896,39.413 184.083 C 39.374 184.542,39.195 186.004,39.015 187.333 C 37.670 197.277,37.673 214.002,39.022 224.333 C 39.208 225.754,39.396 227.327,39.441 227.828 C 39.486 228.329,39.667 229.443,39.845 230.304 C 40.022 231.166,40.166 232.068,40.166 232.310 C 40.165 232.552,40.320 233.500,40.511 234.417 C 40.701 235.333,41.005 236.796,41.186 237.667 C 41.367 238.537,41.813 240.487,42.177 242.000 C 42.541 243.512,42.867 244.900,42.902 245.083 C 42.961 245.394,43.230 246.357,43.996 249.000 C 44.448 250.561,46.739 257.542,47.250 258.917 C 47.488 259.558,47.753 260.304,47.839 260.574 C 48.069 261.296,49.113 263.895,49.765 265.369 C 50.077 266.075,50.333 266.697,50.333 266.750 C 50.333 266.804,50.562 267.350,50.842 267.965 C 51.121 268.580,51.477 269.375,51.633 269.731 C 52.184 270.992,56.509 279.595,57.004 280.417 C 57.280 280.875,57.572 281.400,57.651 281.583 C 57.731 281.767,58.154 282.517,58.592 283.250 C 59.029 283.983,59.470 284.733,59.571 284.917 C 60.054 285.792,61.251 287.759,61.345 287.833 C 61.403 287.879,61.546 288.099,61.663 288.321 C 61.931 288.829,65.069 293.544,66.126 295.026 C 68.514 298.375,68.920 298.931,69.090 299.083 C 69.191 299.175,69.681 299.813,70.177 300.500 C 70.672 301.188,71.162 301.825,71.264 301.917 C 71.367 302.008,72.038 302.833,72.755 303.750 C 73.473 304.667,74.111 305.454,74.174 305.500 C 74.236 305.546,75.054 306.483,75.991 307.583 C 80.015 312.308,86.499 318.800,90.833 322.443 C 91.796 323.252,92.608 323.970,92.639 324.040 C 92.669 324.110,93.511 324.807,94.509 325.590 C 95.507 326.373,96.419 327.110,96.537 327.227 C 96.748 327.438,98.947 329.108,101.229 330.793 C 103.254 332.286,109.927 336.833,110.094 336.833 C 110.144 336.833,110.612 337.120,111.134 337.470 C 112.530 338.405,116.857 340.937,117.292 341.072 C 117.498 341.137,117.667 341.253,117.667 341.332 C 117.667 341.410,117.930 341.561,118.252 341.667 C 118.573 341.773,118.929 341.951,119.043 342.062 C 119.226 342.240,127.172 346.214,128.917 347.000 C 130.641 347.776,131.506 348.151,132.583 348.587 C 133.225 348.847,133.821 349.121,133.908 349.197 C 133.995 349.272,134.169 349.333,134.294 349.333 C 134.419 349.333,134.931 349.521,135.432 349.750 C 135.933 349.979,136.386 350.167,136.438 350.167 C 136.490 350.167,136.769 350.276,137.058 350.410 C 137.611 350.667,141.872 352.176,144.417 353.016 C 146.939 353.849,147.890 354.134,152.167 355.340 C 153.442 355.699,155.940 356.341,156.417 356.432 C 156.600 356.467,157.237 356.619,157.833 356.770 C 158.429 356.922,159.075 357.065,159.270 357.089 C 159.464 357.113,160.326 357.285,161.186 357.471 C 165.896 358.491,173.732 359.705,176.917 359.909 C 177.558 359.950,179.358 360.115,180.917 360.276 C 185.032 360.700,200.836 360.697,204.750 360.271 C 206.217 360.112,207.979 359.950,208.667 359.911 C 210.599 359.802,217.179 358.864,221.000 358.153 C 225.588 357.298,227.289 356.921,230.777 355.987 C 231.434 355.811,232.088 355.667,232.230 355.667 C 232.372 355.667,232.810 355.562,233.203 355.434 C 233.595 355.306,234.779 354.962,235.833 354.670 C 238.013 354.066,238.368 353.957,241.583 352.902 C 242.867 352.481,244.142 352.038,244.417 351.917 C 244.692 351.797,245.179 351.621,245.500 351.526 C 246.283 351.294,248.615 350.398,251.750 349.123 C 253.448 348.433,257.772 346.541,258.454 346.190 C 258.617 346.106,259.800 345.526,261.083 344.902 C 263.832 343.565,267.840 341.445,269.630 340.381 C 269.971 340.178,270.536 339.856,270.885 339.664 C 271.235 339.473,271.925 339.058,272.419 338.741 C 272.913 338.425,273.384 338.167,273.466 338.167 C 273.548 338.167,273.751 338.017,273.917 337.833 C 274.083 337.650,274.284 337.500,274.365 337.500 C 274.518 337.500,275.816 336.681,278.564 334.848 C 280.889 333.299,284.080 331.083,284.453 330.759 C 284.812 330.448,285.061 330.260,286.333 329.345 C 287.021 328.850,287.621 328.392,287.667 328.327 C 287.712 328.263,288.365 327.731,289.116 327.146 C 290.824 325.816,294.531 322.750,295.417 321.934 C 300.759 317.011,302.169 315.645,304.644 312.996 C 308.675 308.682,309.979 307.241,311.201 305.750 C 311.878 304.925,312.628 304.025,312.870 303.750 C 313.847 302.637,317.812 297.427,318.832 295.917 C 319.141 295.458,319.442 295.046,319.500 295.000 C 319.558 294.954,319.899 294.467,320.257 293.917 C 320.616 293.367,320.986 292.832,321.080 292.728 C 321.173 292.624,321.550 292.068,321.917 291.492 C 322.283 290.916,322.856 290.026,323.189 289.514 C 323.994 288.277,325.852 285.281,326.170 284.707 C 326.310 284.456,326.839 283.537,327.345 282.667 C 327.852 281.796,328.361 280.896,328.475 280.667 C 328.590 280.438,328.911 279.837,329.190 279.333 C 329.746 278.326,332.959 271.911,333.573 270.583 C 334.642 268.270,334.836 267.830,335.261 266.750 C 335.513 266.108,335.785 265.497,335.866 265.392 C 335.947 265.287,336.043 265.062,336.081 264.892 C 336.165 264.511,337.103 262.190,337.332 261.794 C 337.425 261.635,337.500 261.369,337.500 261.202 C 337.500 261.036,337.566 260.829,337.647 260.742 C 337.727 260.655,337.886 260.283,338.000 259.917 C 338.113 259.550,338.306 259.025,338.428 258.750 C 338.899 257.689,341.346 250.059,342.009 247.583 C 342.206 246.850,342.505 245.762,342.674 245.167 C 342.843 244.571,343.020 243.858,343.068 243.583 C 343.116 243.308,343.302 242.521,343.482 241.833 C 344.132 239.357,345.907 230.352,345.878 229.677 C 345.872 229.534,346.011 228.565,346.189 227.524 C 346.366 226.483,346.547 225.171,346.591 224.607 C 346.635 224.044,346.816 222.233,346.992 220.583 C 347.862 212.445,347.832 197.315,346.933 190.417 C 346.789 189.317,346.633 187.899,346.586 187.266 C 346.539 186.633,346.386 185.400,346.245 184.525 C 346.104 183.651,345.951 182.556,345.905 182.093 C 345.858 181.629,345.673 180.481,345.494 179.542 C 345.314 178.602,345.014 177.027,344.826 176.042 C 344.370 173.638,343.877 171.367,343.462 169.750 C 343.274 169.017,343.100 168.251,343.075 168.047 C 343.051 167.844,342.914 167.319,342.771 166.881 C 342.628 166.442,342.477 165.882,342.435 165.635 C 342.393 165.389,342.195 164.639,341.994 163.968 C 341.793 163.298,341.484 162.262,341.308 161.667 C 340.576 159.191,340.266 158.206,339.973 157.417 C 339.802 156.958,339.631 156.433,339.593 156.250 C 339.554 156.067,339.249 155.167,338.915 154.250 C 338.581 153.333,338.231 152.321,338.136 152.000 C 338.042 151.679,337.909 151.342,337.840 151.250 C 337.770 151.158,337.596 150.746,337.453 150.333 C 336.986 148.990,335.553 145.436,335.001 144.250 C 334.830 143.883,334.506 143.171,334.280 142.667 C 332.799 139.355,332.141 137.966,331.003 135.750 C 329.950 133.699,327.810 129.745,327.170 128.667 C 327.088 128.529,326.558 127.629,325.992 126.667 C 324.918 124.841,322.290 120.713,321.000 118.825 C 319.170 116.147,318.449 115.110,318.239 114.856 C 318.116 114.706,317.540 113.946,316.960 113.167 C 315.117 110.690,314.279 109.591,314.011 109.300 C 313.648 108.905,313.489 108.712,312.018 106.873 C 311.303 105.980,310.532 105.063,310.304 104.833 C 310.076 104.604,309.074 103.479,308.079 102.333 C 305.625 99.509,300.790 94.613,297.750 91.876 C 293.323 87.889,292.805 87.435,291.509 86.414 C 290.111 85.312,289.792 85.049,289.367 84.650 C 289.211 84.503,287.958 83.542,286.583 82.514 C 285.208 81.486,283.961 80.546,283.811 80.424 C 283.253 79.971,276.167 75.167,276.057 75.167 C 275.997 75.167,274.020 73.910,273.132 73.307 C 272.883 73.138,272.644 73.000,272.600 73.000 C 272.556 73.000,271.859 72.600,271.051 72.110 C 269.139 70.951,264.222 68.268,262.000 67.171 C 260.000 66.183,257.842 65.184,254.083 63.506 C 253.717 63.343,252.629 62.892,251.667 62.505 C 250.704 62.118,249.767 61.737,249.583 61.657 C 248.830 61.331,246.165 60.333,246.045 60.332 C 245.975 60.332,245.697 60.217,245.428 60.076 C 245.159 59.936,244.671 59.757,244.344 59.678 C 244.017 59.600,243.375 59.404,242.917 59.243 C 239.736 58.126,238.884 57.861,234.500 56.615 C 231.901 55.877,228.306 54.981,226.083 54.517 C 225.167 54.326,223.667 54.008,222.750 53.810 C 221.833 53.612,220.850 53.431,220.565 53.407 C 220.279 53.384,219.454 53.246,218.731 53.101 C 218.008 52.957,217.079 52.801,216.667 52.756 C 216.254 52.710,214.904 52.525,213.667 52.343 C 206.506 51.292,190.839 50.590,186.083 51.108 M202.333 62.919 C 229.729 64.935,254.033 73.610,275.937 89.189 C 284.297 95.134,291.095 101.194,299.191 109.916 C 318.109 130.297,331.513 159.575,334.900 187.917 C 335.764 195.153,335.910 197.757,335.907 205.917 C 335.905 213.491,335.813 215.381,335.153 221.500 C 328.507 283.124,282.614 333.522,221.651 346.145 C 217.927 346.916,218.245 347.009,218.019 345.083 C 214.312 313.570,233.909 276.876,276.000 236.519 C 296.342 217.014,301.827 210.406,305.504 200.968 C 313.651 180.064,300.300 164.552,265.583 154.585 C 259.291 152.778,249.143 149.184,238.431 144.969 C 233.250 142.930,233.504 143.075,233.086 141.917 C 232.736 140.948,231.867 139.167,231.745 139.167 C 231.699 139.167,231.859 139.558,232.101 140.036 C 232.344 140.514,232.721 141.381,232.940 141.964 L 233.339 143.022 232.294 142.415 C 225.507 138.467,204.777 131.347,195.382 129.736 C 194.429 129.573,193.724 129.376,193.778 129.288 C 193.834 129.198,193.733 129.176,193.544 129.236 C 193.362 129.294,192.209 129.118,190.982 128.845 C 174.315 125.145,162.724 125.670,147.167 130.831 C 110.004 143.161,95.224 161.200,92.335 197.750 C 91.639 206.565,90.912 215.151,90.501 219.417 C 90.413 220.333,90.258 221.946,90.157 223.000 C 89.791 226.817,89.030 233.552,88.585 236.917 C 86.144 255.355,81.529 272.710,75.521 286.042 C 74.886 287.449,75.138 287.607,73.119 284.542 C 54.862 256.828,46.867 223.646,50.422 190.333 C 57.736 121.784,113.606 67.854,182.333 63.003 C 183.846 62.896,185.233 62.787,185.417 62.760 C 186.655 62.581,199.359 62.700,202.333 62.919 M206.964 127.123 C 207.448 127.157,208.198 127.156,208.631 127.122 C 209.063 127.088,208.667 127.060,207.750 127.061 C 206.833 127.061,206.480 127.089,206.964 127.123 M202.500 127.342 C 202.034 127.421,202.318 127.435,203.250 127.381 C 204.075 127.333,204.781 127.265,204.819 127.230 C 204.932 127.127,203.314 127.206,202.500 127.342 M210.514 127.229 C 210.552 127.263,211.221 127.332,212.000 127.382 C 213.029 127.448,213.212 127.435,212.667 127.332 C 211.903 127.189,210.387 127.116,210.514 127.229 M200.875 127.615 C 201.035 127.657,201.298 127.657,201.458 127.615 C 201.619 127.573,201.487 127.539,201.167 127.539 C 200.846 127.539,200.715 127.573,200.875 127.615 M213.514 127.562 C 213.552 127.596,213.958 127.667,214.417 127.720 C 214.979 127.785,215.114 127.770,214.833 127.675 C 214.417 127.533,213.383 127.445,213.514 127.562 M218.571 128.761 C 219.205 128.983,219.753 129.136,219.788 129.101 C 219.865 129.024,217.842 128.328,217.593 128.346 C 217.496 128.353,217.936 128.540,218.571 128.761 M220.817 129.595 C 221.313 129.820,221.746 129.976,221.781 129.941 C 221.853 129.869,220.256 129.162,220.052 129.176 C 219.978 129.182,220.322 129.370,220.817 129.595 M222.417 130.288 C 222.508 130.375,223.033 130.686,223.583 130.980 C 224.133 131.274,224.433 131.393,224.250 131.244 C 223.873 130.938,222.159 130.045,222.417 130.288 M224.667 131.561 C 224.667 131.606,224.892 131.804,225.167 132.000 C 225.442 132.196,225.667 132.319,225.667 132.273 C 225.667 132.227,225.442 132.029,225.167 131.833 C 224.892 131.638,224.667 131.515,224.667 131.561 M225.833 132.371 C 225.833 132.407,226.265 132.803,226.792 133.251 C 227.319 133.700,227.600 133.893,227.417 133.682 C 227.069 133.279,225.833 132.257,225.833 132.371 M228.130 134.417 C 228.314 134.692,228.627 135.064,228.826 135.243 C 229.024 135.423,229.571 136.098,230.040 136.743 C 230.509 137.389,230.968 137.992,231.061 138.083 C 231.374 138.396,230.615 137.253,229.898 136.333 C 228.967 135.139,227.682 133.746,228.130 134.417 M177.836 143.303 C 199.967 148.046,207.863 174.939,191.701 190.524 C 177.075 204.629,152.650 198.625,146.173 179.333 C 144.335 173.859,144.359 167.201,146.236 161.591 C 149.579 151.599,158.649 144.275,169.333 142.939 C 170.915 142.741,176.288 142.971,177.836 143.303 M158.583 184.500 C 159.128 185.050,159.610 185.500,159.656 185.500 C 159.702 185.500,159.294 185.050,158.750 184.500 C 158.206 183.950,157.723 183.500,157.677 183.500 C 157.631 183.500,158.039 183.950,158.583 184.500 M274.252 192.743 C 279.923 195.518,278.042 204.146,271.750 204.220 C 264.790 204.302,263.250 194.563,269.881 192.399 C 271.051 192.017,273.097 192.178,274.252 192.743 M298.904 211.684 C 294.579 216.513,279.733 225.250,267.483 230.176 C 235.190 243.160,209.549 242.897,195.708 229.439 C 193.843 227.625,194.234 227.434,196.806 228.901 C 206.263 234.297,218.909 236.064,236.167 234.400 C 257.213 232.370,283.195 222.876,297.750 211.896 C 298.898 211.030,299.607 210.900,298.904 211.684 " stroke="none" fill="#8bc33c" fill-rule="evenodd"></path><path id="path1" d="M0.042 200.042 L 0.083 400.083 0.125 200.125 L 0.167 0.167 200.125 0.125 L 400.083 0.083 200.042 0.042 L 0.000 0.000 0.042 200.042 M203.917 70.772 C 198.863 71.106,195.333 71.758,195.333 72.357 C 195.333 72.707,195.429 72.849,195.708 72.914 C 195.915 72.962,198.295 73.454,200.998 74.006 C 218.695 77.623,226.930 80.121,245.667 87.550 C 261.969 94.015,268.182 97.493,276.180 104.633 C 288.297 115.450,301.866 136.878,310.869 159.417 C 318.079 177.467,322.041 191.726,325.872 213.417 L 326.254 215.583 326.749 215.583 C 327.243 215.583,327.244 215.580,327.451 214.167 C 332.432 180.057,320.292 143.350,295.766 118.360 C 287.124 109.554,264.140 90.262,255.065 84.196 C 240.868 74.707,221.461 69.614,203.917 70.772 M170.417 142.931 C 170.142 142.970,169.317 143.081,168.583 143.177 C 150.166 145.594,139.421 165.929,147.670 182.755 C 154.986 197.677,174.148 202.827,187.863 193.557 C 204.973 181.993,204.020 156.771,186.083 146.439 C 181.776 143.958,174.552 142.340,170.417 142.931 M176.250 151.616 C 191.278 154.507,197.250 173.155,186.688 184.211 C 174.370 197.103,153.075 188.520,153.085 170.667 C 153.092 158.305,164.074 149.273,176.250 151.616 M269.832 192.489 C 266.506 193.501,264.708 197.628,266.237 200.741 C 269.024 206.418,277.553 204.557,277.549 198.272 C 277.546 194.196,273.699 191.313,269.832 192.489 " stroke="none" fill="#fbfbfa" fill-rule="evenodd"></path><path id="path2" d="M185.417 62.760 C 185.233 62.787,183.846 62.896,182.333 63.003 C 113.606 67.854,57.736 121.784,50.422 190.333 C 46.867 223.646,54.862 256.828,73.119 284.542 C 75.138 287.607,74.886 287.449,75.521 286.042 C 81.529 272.710,86.144 255.355,88.585 236.917 C 89.030 233.552,89.791 226.817,90.157 223.000 C 90.258 221.946,90.413 220.333,90.501 219.417 C 90.912 215.151,91.639 206.565,92.335 197.750 C 95.224 161.200,110.004 143.161,147.167 130.831 C 162.716 125.672,174.316 125.145,190.960 128.841 L 193.171 129.331 194.954 128.830 C 212.345 123.947,228.261 129.283,232.941 141.566 C 233.539 143.135,233.134 142.885,238.431 144.969 C 249.143 149.184,259.291 152.778,265.583 154.585 C 277.816 158.097,285.779 161.442,292.619 165.942 C 312.013 178.699,312.757 197.258,294.702 217.860 C 293.323 219.434,281.098 231.630,276.000 236.519 C 233.909 276.876,214.312 313.570,218.019 345.083 C 218.245 347.009,217.927 346.916,221.651 346.145 C 282.614 333.522,328.507 283.124,335.153 221.500 C 335.813 215.381,335.905 213.491,335.907 205.917 C 335.919 171.087,324.185 139.196,301.597 112.667 C 299.865 110.633,299.674 110.422,296.174 106.691 C 273.968 83.023,241.779 67.108,208.833 63.507 C 202.304 62.794,188.275 62.346,185.417 62.760 M217.333 71.078 C 232.012 72.686,244.167 76.912,255.065 84.196 C 264.140 90.262,287.124 109.554,295.766 118.360 C 320.292 143.350,332.432 180.057,327.451 214.167 C 327.244 215.580,327.243 215.583,326.749 215.583 L 326.254 215.583 325.872 213.417 C 321.723 189.924,316.762 172.861,308.511 153.700 C 302.302 139.280,291.826 121.858,283.588 112.250 C 273.675 100.689,265.698 95.493,245.667 87.550 C 226.930 80.121,218.695 77.623,200.998 74.006 C 198.295 73.454,195.915 72.962,195.708 72.914 C 195.429 72.849,195.333 72.707,195.333 72.357 C 195.333 71.758,198.863 71.106,203.917 70.772 C 206.183 70.622,215.012 70.824,217.333 71.078 M170.042 142.948 C 170.202 142.990,170.465 142.990,170.625 142.948 C 170.785 142.906,170.654 142.872,170.333 142.872 C 170.012 142.872,169.881 142.906,170.042 142.948 M174.375 142.948 C 174.535 142.990,174.798 142.990,174.958 142.948 C 175.119 142.906,174.987 142.872,174.667 142.872 C 174.346 142.872,174.215 142.906,174.375 142.948 M152.745 151.042 L 151.750 152.083 152.792 151.089 C 153.365 150.541,153.833 150.073,153.833 150.047 C 153.833 149.924,153.669 150.074,152.745 151.042 M191.993 150.875 C 192.684 151.611,192.833 151.743,192.833 151.618 C 192.833 151.591,192.477 151.235,192.042 150.826 L 191.250 150.083 191.993 150.875 M172.208 151.282 C 172.369 151.323,172.631 151.323,172.792 151.282 C 172.952 151.240,172.821 151.205,172.500 151.205 C 172.179 151.205,172.048 151.240,172.208 151.282 M158.667 156.917 C 158.262 157.329,157.968 157.667,158.014 157.667 C 158.060 157.667,158.428 157.329,158.833 156.917 C 159.238 156.504,159.532 156.167,159.486 156.167 C 159.440 156.167,159.072 156.504,158.667 156.917 M144.875 167.917 C 144.877 168.283,144.911 168.414,144.951 168.206 C 144.991 167.999,144.990 167.699,144.948 167.540 C 144.906 167.380,144.874 167.550,144.875 167.917 M144.875 173.250 C 144.877 173.617,144.911 173.747,144.951 173.540 C 144.991 173.332,144.990 173.032,144.948 172.873 C 144.906 172.714,144.874 172.883,144.875 173.250 M197.242 182.849 C 197.095 183.132,197.005 183.394,197.041 183.430 C 197.077 183.466,197.232 183.234,197.384 182.915 C 197.727 182.196,197.608 182.141,197.242 182.849 M193.240 188.875 L 192.750 189.417 193.292 188.927 C 193.797 188.471,193.910 188.333,193.781 188.333 C 193.752 188.333,193.509 188.577,193.240 188.875 M190.740 191.375 L 190.250 191.917 190.792 191.427 C 191.297 190.971,191.410 190.833,191.281 190.833 C 191.252 190.833,191.009 191.077,190.740 191.375 M271.042 192.288 C 271.385 192.324,271.948 192.324,272.292 192.288 C 272.635 192.252,272.354 192.223,271.667 192.223 C 270.979 192.223,270.698 192.252,271.042 192.288 M267.242 194.042 L 266.583 194.750 267.292 194.091 C 267.950 193.478,268.077 193.333,267.950 193.333 C 267.923 193.333,267.605 193.652,267.242 194.042 M169.127 198.118 C 169.334 198.158,169.634 198.156,169.794 198.115 C 169.953 198.073,169.783 198.040,169.417 198.042 C 169.050 198.044,168.920 198.078,169.127 198.118 M175.208 198.115 C 175.369 198.157,175.631 198.157,175.792 198.115 C 175.952 198.073,175.821 198.039,175.500 198.039 C 175.179 198.039,175.048 198.073,175.208 198.115 M171.797 198.290 C 172.282 198.324,173.032 198.323,173.464 198.289 C 173.896 198.255,173.500 198.227,172.583 198.228 C 171.667 198.228,171.313 198.256,171.797 198.290 M271.294 204.285 C 271.501 204.324,271.801 204.323,271.960 204.281 C 272.120 204.239,271.950 204.207,271.583 204.209 C 271.217 204.211,271.086 204.245,271.294 204.285 " stroke="none" fill="#fbeb8b" fill-rule="evenodd"></path><path id="path3" d="M185.917 50.931 C 185.642 50.966,183.954 51.068,182.167 51.156 C 177.678 51.378,171.503 52.080,167.250 52.852 C 166.242 53.035,165.154 53.216,164.833 53.254 C 164.512 53.292,163.575 53.470,162.750 53.650 C 161.925 53.829,160.462 54.138,159.500 54.336 C 157.774 54.691,156.614 54.964,153.833 55.669 C 151.111 56.359,146.238 57.795,144.250 58.492 C 143.792 58.653,142.817 58.982,142.083 59.222 C 141.350 59.462,140.037 59.926,139.167 60.252 C 138.296 60.578,137.246 60.962,136.833 61.105 C 136.421 61.249,136.012 61.434,135.925 61.516 C 135.838 61.599,135.665 61.667,135.541 61.667 C 135.220 61.667,133.784 62.339,133.886 62.442 C 133.933 62.489,134.125 62.445,134.313 62.344 C 135.518 61.699,144.757 58.453,148.333 57.419 C 149.204 57.167,150.367 56.829,150.917 56.667 C 152.861 56.098,157.201 55.016,159.500 54.528 C 160.371 54.343,161.871 54.025,162.833 53.821 C 163.796 53.617,164.771 53.435,165.000 53.416 C 165.229 53.397,166.017 53.259,166.750 53.107 C 167.483 52.956,168.441 52.800,168.878 52.760 C 169.315 52.720,170.703 52.535,171.961 52.349 C 179.715 51.205,190.255 50.801,202.333 51.187 C 204.588 51.259,204.996 51.250,203.667 51.157 C 201.605 51.013,186.745 50.823,185.917 50.931 M208.583 51.692 C 210.142 51.868,212.429 52.161,213.667 52.343 C 214.904 52.525,216.254 52.710,216.667 52.756 C 217.079 52.801,218.008 52.957,218.731 53.101 C 219.454 53.246,220.279 53.384,220.565 53.407 C 220.850 53.431,221.833 53.612,222.750 53.810 C 223.667 54.008,225.167 54.325,226.083 54.516 C 227.000 54.706,228.275 55.006,228.917 55.182 C 229.558 55.357,230.233 55.496,230.417 55.489 C 230.741 55.478,229.763 55.166,228.417 54.851 C 225.770 54.233,221.536 53.341,220.833 53.254 C 220.512 53.215,219.387 53.034,218.333 52.853 C 214.441 52.184,207.250 51.296,206.167 51.351 C 205.938 51.363,207.025 51.516,208.583 51.692 M230.833 55.490 C 230.833 55.567,231.340 55.759,231.958 55.918 C 232.990 56.182,233.705 56.382,237.083 57.353 C 238.917 57.880,240.425 58.368,242.917 59.243 C 243.375 59.404,244.047 59.606,244.410 59.693 C 244.773 59.780,245.148 59.913,245.243 59.988 C 245.339 60.064,245.604 60.181,245.833 60.249 C 246.262 60.377,248.990 61.401,249.583 61.657 C 249.767 61.737,250.704 62.118,251.667 62.505 C 252.629 62.892,253.717 63.343,254.083 63.506 C 257.842 65.184,260.000 66.183,262.000 67.171 C 264.228 68.270,269.140 70.952,271.063 72.117 C 271.876 72.610,272.574 72.981,272.614 72.942 C 272.709 72.846,271.635 72.129,270.500 71.531 C 270.179 71.361,269.617 71.050,269.250 70.838 C 265.600 68.729,260.589 66.196,256.000 64.140 C 255.588 63.956,254.950 63.666,254.583 63.497 C 254.217 63.328,253.504 63.028,253.000 62.830 C 252.496 62.633,251.671 62.296,251.167 62.081 C 250.662 61.866,249.800 61.524,249.250 61.320 C 248.700 61.116,247.932 60.811,247.543 60.642 C 247.155 60.472,246.742 60.332,246.627 60.330 C 246.511 60.328,246.079 60.169,245.667 59.977 C 245.254 59.785,244.692 59.570,244.417 59.498 C 244.142 59.427,243.542 59.237,243.083 59.076 C 241.004 58.347,239.407 57.832,237.000 57.118 C 236.221 56.886,235.056 56.540,234.412 56.349 C 233.768 56.157,233.123 56.000,232.980 56.000 C 232.836 56.000,232.295 55.854,231.776 55.676 C 231.258 55.497,230.833 55.414,230.833 55.490 M132.833 62.695 C 132.421 62.882,131.783 63.172,131.417 63.339 C 131.050 63.506,130.188 63.882,129.500 64.175 C 127.407 65.066,122.789 67.345,122.884 67.440 C 122.934 67.489,123.636 67.198,124.445 66.794 C 126.968 65.532,129.553 64.348,133.125 62.817 C 133.423 62.690,133.667 62.529,133.667 62.459 C 133.667 62.305,133.733 62.286,132.833 62.695 M121.173 68.181 C 120.490 68.542,118.965 69.381,117.786 70.044 C 116.607 70.707,115.164 71.512,114.580 71.833 C 113.995 72.154,113.423 72.510,113.308 72.625 C 113.194 72.740,113.028 72.833,112.941 72.833 C 112.853 72.833,112.549 73.008,112.266 73.221 C 111.982 73.434,111.638 73.657,111.500 73.717 C 111.362 73.777,110.983 73.997,110.656 74.205 C 110.330 74.413,109.805 74.748,109.490 74.948 C 109.175 75.149,108.826 75.393,108.715 75.490 C 108.605 75.587,108.480 75.667,108.439 75.667 C 108.355 75.667,106.177 77.068,105.917 77.289 C 105.825 77.367,105.300 77.726,104.750 78.087 C 104.200 78.449,103.675 78.802,103.583 78.872 C 103.492 78.942,102.292 79.837,100.917 80.861 C 96.436 84.198,96.000 84.537,96.000 84.686 C 96.000 84.767,95.904 84.833,95.787 84.833 C 95.670 84.833,95.450 84.965,95.299 85.125 C 95.147 85.285,94.924 85.493,94.803 85.586 C 94.047 86.168,91.981 87.896,91.437 88.400 C 91.082 88.730,90.753 89.000,90.706 89.000 C 90.659 89.000,90.537 89.102,90.435 89.227 C 90.333 89.351,89.125 90.468,87.750 91.709 C 85.144 94.060,80.376 98.843,78.083 101.407 C 76.480 103.199,75.777 103.970,75.333 104.423 C 75.150 104.609,75.000 104.853,75.000 104.964 C 75.000 105.076,74.937 105.167,74.859 105.167 C 74.781 105.167,74.205 105.804,73.578 106.583 C 72.952 107.362,72.378 108.000,72.303 108.000 C 72.228 108.000,72.167 108.096,72.167 108.213 C 72.167 108.330,72.035 108.550,71.875 108.701 C 71.568 108.991,71.541 109.024,70.756 110.083 C 70.484 110.450,70.053 110.975,69.798 111.250 C 69.543 111.525,69.335 111.837,69.334 111.944 C 69.334 112.051,69.268 112.164,69.188 112.194 C 68.994 112.269,67.333 114.478,67.333 114.662 C 67.333 114.741,67.277 114.831,67.208 114.861 C 67.041 114.935,64.665 118.263,63.913 119.476 C 63.820 119.627,63.520 120.079,63.247 120.481 C 62.312 121.856,61.840 122.583,61.667 122.917 C 61.571 123.100,61.271 123.587,61.000 124.000 C 60.729 124.412,60.429 124.900,60.333 125.083 C 60.238 125.267,59.939 125.754,59.670 126.167 C 59.400 126.579,59.039 127.179,58.868 127.500 C 58.696 127.821,58.383 128.383,58.170 128.750 C 57.958 129.117,57.560 129.829,57.287 130.333 C 57.013 130.837,56.657 131.475,56.496 131.750 C 55.716 133.079,53.691 137.042,52.579 139.417 C 51.851 140.971,51.596 141.534,50.844 143.250 C 50.683 143.617,50.352 144.337,50.109 144.850 C 49.866 145.363,49.667 145.863,49.667 145.961 C 49.667 146.059,49.557 146.352,49.423 146.611 C 48.899 147.627,48.358 149.000,48.482 149.000 C 48.638 149.000,48.835 148.582,49.601 146.621 C 49.919 145.808,50.249 145.017,50.334 144.863 C 50.419 144.709,50.634 144.246,50.813 143.833 C 51.854 141.424,52.574 139.827,52.915 139.167 C 53.129 138.754,53.570 137.854,53.896 137.167 C 54.697 135.479,57.493 130.282,58.829 128.000 C 60.124 125.789,60.773 124.740,60.875 124.694 C 60.944 124.664,61.000 124.568,61.000 124.481 C 61.000 124.317,61.714 123.186,63.722 120.167 C 65.627 117.303,66.191 116.476,66.435 116.189 C 66.562 116.039,66.985 115.456,67.375 114.893 C 74.012 105.307,86.321 92.441,96.333 84.626 C 97.296 83.875,98.158 83.177,98.250 83.075 C 98.342 82.973,98.942 82.528,99.583 82.087 C 100.225 81.646,100.825 81.198,100.917 81.091 C 101.008 80.984,101.562 80.563,102.146 80.156 C 102.731 79.750,103.631 79.124,104.146 78.765 C 104.662 78.407,105.683 77.714,106.417 77.225 C 107.150 76.736,107.862 76.261,108.000 76.168 C 108.823 75.612,110.558 74.500,110.603 74.500 C 110.632 74.500,111.166 74.181,111.788 73.792 C 113.822 72.519,114.687 72.015,117.841 70.263 C 119.175 69.523,120.488 68.790,120.758 68.636 C 121.029 68.482,121.569 68.205,121.958 68.021 C 122.348 67.836,122.667 67.644,122.667 67.593 C 122.667 67.424,122.428 67.518,121.173 68.181 M272.833 72.991 C 272.833 73.083,273.040 73.284,273.292 73.438 C 273.544 73.591,274.255 74.043,274.873 74.442 C 275.491 74.840,276.024 75.167,276.057 75.167 C 276.167 75.167,283.253 79.971,283.811 80.424 C 283.961 80.546,285.208 81.486,286.583 82.514 C 287.958 83.542,289.211 84.503,289.367 84.650 C 289.792 85.049,290.111 85.312,291.509 86.414 C 292.805 87.435,293.323 87.889,297.750 91.876 C 300.790 94.613,305.625 99.509,308.079 102.333 C 309.074 103.479,310.076 104.604,310.304 104.833 C 310.532 105.063,311.303 105.980,312.018 106.873 C 313.489 108.712,313.648 108.905,314.011 109.300 C 314.279 109.591,315.117 110.690,316.960 113.167 C 317.540 113.946,318.116 114.706,318.239 114.856 C 318.449 115.110,319.170 116.147,321.000 118.825 C 322.290 120.713,324.918 124.841,325.992 126.667 C 326.558 127.629,327.088 128.529,327.170 128.667 C 327.810 129.745,329.950 133.699,331.003 135.750 C 332.141 137.966,332.799 139.355,334.280 142.667 C 334.506 143.171,334.830 143.883,335.001 144.250 C 335.171 144.617,335.585 145.592,335.920 146.417 C 336.255 147.242,336.569 148.010,336.616 148.125 C 336.663 148.240,336.768 148.333,336.849 148.333 C 336.930 148.333,336.800 147.902,336.561 147.375 C 336.046 146.241,335.844 145.778,335.236 144.333 C 333.475 140.149,329.899 132.941,327.834 129.417 C 327.619 129.050,327.304 128.487,327.132 128.167 C 326.961 127.846,326.600 127.246,326.330 126.833 C 326.061 126.421,325.765 125.933,325.673 125.750 C 325.581 125.567,325.336 125.150,325.128 124.823 C 324.200 123.366,323.975 123.009,323.219 121.793 C 322.778 121.084,322.360 120.503,322.292 120.502 C 322.223 120.501,322.167 120.432,322.167 120.349 C 322.167 120.158,320.780 118.007,320.428 117.653 C 320.284 117.507,320.167 117.333,320.167 117.265 C 320.167 117.197,319.741 116.566,319.221 115.863 C 318.700 115.159,318.044 114.258,317.762 113.860 C 317.481 113.462,317.119 113.014,316.958 112.864 C 316.798 112.715,316.667 112.535,316.667 112.465 C 316.667 112.395,316.559 112.205,316.427 112.044 C 316.295 111.882,315.920 111.412,315.594 111.000 C 315.268 110.587,314.888 110.131,314.751 109.986 C 314.613 109.841,314.500 109.635,314.500 109.528 C 314.500 109.421,314.434 109.333,314.354 109.333 C 314.273 109.333,313.795 108.790,313.292 108.125 C 312.789 107.460,312.199 106.723,311.981 106.487 C 311.762 106.250,311.208 105.617,310.750 105.079 C 308.716 102.691,308.324 102.246,306.833 100.633 C 305.810 99.525,298.842 92.500,298.767 92.500 C 298.734 92.500,298.229 92.043,297.645 91.484 C 297.061 90.925,295.908 89.896,295.083 89.197 C 294.258 88.498,293.546 87.885,293.500 87.835 C 293.285 87.597,291.334 85.997,288.833 84.008 C 287.779 83.169,286.785 82.374,286.623 82.241 C 286.462 82.109,286.280 82.000,286.220 82.000 C 286.160 82.000,285.993 81.882,285.847 81.738 C 285.338 81.233,281.865 78.741,280.522 77.917 C 280.372 77.825,280.212 77.705,280.167 77.650 C 280.094 77.563,279.168 76.932,278.351 76.413 C 278.204 76.320,277.752 76.020,277.348 75.747 C 276.661 75.283,276.428 75.134,275.192 74.375 C 274.613 74.019,273.904 73.558,273.292 73.138 C 273.040 72.965,272.833 72.899,272.833 72.991 M336.840 148.570 C 336.833 148.726,337.550 150.638,337.845 151.250 C 337.933 151.433,338.073 151.808,338.157 152.083 C 338.241 152.358,338.582 153.333,338.916 154.250 C 339.250 155.167,339.556 156.081,339.596 156.281 C 339.687 156.736,340.295 158.167,340.397 158.167 C 340.474 158.167,338.979 153.670,338.596 152.750 C 338.364 152.191,338.106 151.496,337.662 150.225 C 337.339 149.301,336.851 148.319,336.840 148.570 M48.030 150.085 C 47.830 150.588,47.522 151.394,47.345 151.875 C 47.168 152.356,46.858 153.184,46.656 153.714 C 46.455 154.245,46.329 154.718,46.377 154.766 C 46.425 154.814,46.596 154.493,46.757 154.052 C 47.222 152.778,47.830 151.157,48.201 150.202 C 48.390 149.718,48.510 149.287,48.468 149.246 C 48.427 149.205,48.230 149.582,48.030 150.085 M169.917 151.495 C 152.525 153.983,146.957 176.035,161.069 186.538 C 171.491 194.294,186.831 189.359,190.974 176.917 C 195.468 163.425,183.925 149.491,169.917 151.495 M45.887 155.927 C 45.691 156.426,45.584 156.833,45.649 156.833 C 45.784 156.833,46.406 155.184,46.308 155.086 C 46.273 155.051,46.083 155.429,45.887 155.927 M45.218 158.044 C 44.761 159.430,44.280 160.995,43.874 162.417 C 43.691 163.058,43.385 164.108,43.194 164.750 C 43.003 165.392,42.770 166.254,42.676 166.667 C 42.582 167.079,42.395 167.773,42.261 168.208 C 42.126 168.644,42.069 169.000,42.133 168.999 C 42.245 168.998,42.541 168.032,43.333 165.083 C 44.063 162.366,45.070 158.952,45.459 157.871 C 45.599 157.480,45.680 157.124,45.637 157.082 C 45.595 157.039,45.406 157.472,45.218 158.044 M340.338 158.452 C 340.336 158.563,340.472 159.051,340.643 159.535 C 340.813 160.020,341.104 160.942,341.290 161.583 C 342.203 164.725,342.409 165.357,342.466 165.186 C 342.500 165.084,342.370 164.494,342.178 163.875 C 341.986 163.256,341.675 162.225,341.487 161.583 C 340.721 158.976,340.351 157.966,340.338 158.452 M342.394 165.667 C 342.866 167.137,343.038 167.735,343.079 168.047 C 343.178 168.816,343.712 170.667,343.834 170.667 C 343.904 170.667,343.816 170.123,343.639 169.458 C 343.461 168.794,343.165 167.688,342.980 167.000 C 342.795 166.313,342.569 165.675,342.479 165.583 C 342.369 165.473,342.341 165.501,342.394 165.667 M42.000 169.469 C 42.000 169.646,41.889 170.106,41.753 170.492 C 41.617 170.877,41.462 171.542,41.409 171.971 C 41.356 172.399,41.167 173.295,40.989 173.960 C 40.812 174.626,40.667 175.338,40.668 175.544 C 40.668 175.749,40.525 176.592,40.350 177.417 C 40.174 178.242,39.950 179.442,39.852 180.083 C 39.754 180.725,39.569 181.794,39.440 182.458 C 39.311 183.123,39.256 183.667,39.317 183.667 C 39.379 183.667,39.602 182.635,39.813 181.375 C 40.024 180.115,40.311 178.524,40.451 177.840 C 40.590 177.157,40.764 176.219,40.835 175.757 C 41.032 174.494,41.793 171.023,42.071 170.129 C 42.218 169.654,42.252 169.303,42.157 169.244 C 42.071 169.191,42.000 169.292,42.000 169.469 M343.895 171.333 C 343.930 171.654,344.222 173.192,344.544 174.750 C 344.867 176.308,345.225 178.108,345.341 178.750 C 345.812 181.352,345.969 182.063,345.985 181.667 C 346.001 181.276,345.791 180.058,344.976 175.833 C 344.552 173.637,343.812 170.554,343.895 171.333 M345.898 182.417 C 346.073 183.135,346.507 186.199,346.587 187.278 C 346.634 187.904,346.789 189.317,346.933 190.417 C 347.832 197.315,347.862 212.445,346.992 220.583 C 346.816 222.233,346.635 224.044,346.591 224.607 C 346.547 225.171,346.356 226.512,346.166 227.587 C 345.815 229.575,345.793 230.390,346.133 228.793 C 347.758 221.149,348.332 201.793,347.234 191.667 C 347.100 190.429,346.915 188.629,346.824 187.667 C 346.614 185.446,346.167 182.659,345.969 182.333 C 345.852 182.141,345.836 182.160,345.898 182.417 M39.198 184.369 C 39.186 184.670,39.034 185.835,38.862 186.958 C 38.689 188.081,38.597 189.000,38.657 189.000 C 38.819 189.000,39.485 184.104,39.343 183.952 C 39.276 183.880,39.211 184.068,39.198 184.369 M38.466 190.667 C 38.402 191.537,38.228 193.600,38.079 195.250 C 37.465 202.063,37.852 216.622,38.853 224.401 C 39.041 225.859,39.222 227.359,39.256 227.735 C 39.372 229.004,40.271 234.141,40.922 237.250 C 41.431 239.680,41.460 239.789,41.481 239.341 C 41.491 239.117,41.355 238.292,41.177 237.508 C 40.566 234.809,40.165 232.749,40.166 232.310 C 40.166 232.068,40.022 231.166,39.845 230.304 C 39.667 229.443,39.486 228.329,39.441 227.828 C 39.396 227.327,39.208 225.754,39.022 224.333 C 38.000 216.505,37.672 200.451,38.390 193.417 C 38.558 191.767,38.670 190.117,38.639 189.750 C 38.605 189.344,38.537 189.703,38.466 190.667 M297.750 211.896 C 283.195 222.876,257.213 232.370,236.167 234.400 C 218.909 236.064,206.263 234.297,196.806 228.901 C 194.234 227.434,193.843 227.625,195.708 229.439 C 209.549 242.897,235.190 243.160,267.483 230.176 C 279.733 225.250,294.579 216.513,298.904 211.684 C 299.607 210.900,298.898 211.030,297.750 211.896 M345.524 231.917 C 344.997 234.862,344.543 237.147,344.157 238.798 C 343.979 239.557,343.838 240.345,343.844 240.548 C 343.859 241.029,344.517 238.275,344.972 235.833 C 345.168 234.779,345.485 233.108,345.676 232.121 C 345.867 231.133,345.998 230.195,345.967 230.037 C 345.936 229.879,345.737 230.725,345.524 231.917 M41.666 240.792 C 41.829 241.319,42.002 242.012,42.051 242.333 C 42.099 242.654,42.368 243.779,42.650 244.833 C 42.931 245.887,43.252 247.088,43.361 247.500 C 43.728 248.878,44.325 250.587,44.329 250.272 C 44.331 250.101,44.186 249.501,44.006 248.939 C 43.606 247.689,42.988 245.534,42.902 245.091 C 42.640 243.731,41.597 239.833,41.495 239.833 C 41.425 239.833,41.502 240.265,41.666 240.792 M343.450 242.042 C 343.288 242.615,343.116 243.308,343.068 243.583 C 343.020 243.858,342.843 244.571,342.674 245.167 C 341.832 248.133,341.666 248.770,341.675 249.000 C 341.690 249.381,343.338 243.759,343.337 243.333 C 343.336 243.196,343.478 242.615,343.653 242.042 C 343.827 241.469,343.919 241.000,343.858 241.000 C 343.796 241.000,343.613 241.469,343.450 242.042 M341.279 250.074 C 341.125 250.524,341.005 251.011,341.012 251.155 C 341.019 251.299,341.170 251.007,341.347 250.506 C 341.525 250.005,341.645 249.519,341.614 249.426 C 341.583 249.332,341.432 249.624,341.279 250.074 M44.333 250.733 C 44.333 251.105,46.960 258.929,47.425 259.942 C 47.558 260.231,47.667 260.553,47.667 260.658 C 47.667 260.763,47.817 261.160,48.000 261.539 C 48.183 261.919,48.336 262.309,48.339 262.406 C 48.348 262.652,49.145 264.289,49.156 264.083 C 49.161 263.992,48.932 263.354,48.646 262.667 C 48.361 261.979,48.027 261.117,47.904 260.750 C 47.781 260.383,47.485 259.558,47.247 258.917 C 47.009 258.275,46.292 256.179,45.653 254.260 C 44.595 251.081,44.333 250.381,44.333 250.733 M340.615 252.292 C 340.263 253.274,340.257 253.620,340.605 252.833 C 341.071 251.780,341.160 251.500,341.029 251.500 C 340.958 251.500,340.771 251.856,340.615 252.292 M339.423 255.958 C 338.971 257.310,338.551 258.492,338.489 258.583 C 338.428 258.675,338.246 259.162,338.085 259.667 C 337.924 260.171,337.727 260.655,337.646 260.742 C 337.566 260.829,337.500 261.058,337.500 261.250 C 337.500 261.442,337.434 261.671,337.354 261.758 C 337.274 261.845,337.047 262.354,336.851 262.889 C 336.655 263.423,336.381 264.079,336.243 264.347 C 336.105 264.614,336.059 264.833,336.142 264.833 C 336.293 264.833,337.000 263.337,337.000 263.016 C 337.000 262.921,337.150 262.576,337.333 262.250 C 337.517 261.924,337.667 261.567,337.667 261.456 C 337.667 261.254,338.159 259.905,338.625 258.833 C 338.764 258.512,338.937 258.025,339.009 257.750 C 339.081 257.475,339.442 256.406,339.812 255.375 C 340.181 254.344,340.430 253.500,340.364 253.500 C 340.299 253.500,339.875 254.606,339.423 255.958 M49.775 266.042 C 50.194 266.981,50.685 268.087,50.868 268.500 C 51.385 269.673,51.901 270.655,51.966 270.590 C 52.020 270.535,51.349 268.957,50.985 268.287 C 50.897 268.124,50.672 267.599,50.484 267.121 C 49.860 265.526,49.289 264.333,49.151 264.333 C 49.076 264.333,49.357 265.102,49.775 266.042 M335.785 265.536 C 335.642 265.837,335.366 266.490,335.171 266.987 C 334.976 267.483,334.623 268.308,334.387 268.820 C 334.151 269.331,333.785 270.125,333.573 270.583 C 332.782 272.296,329.643 278.561,329.409 278.895 C 329.276 279.085,329.169 279.318,329.172 279.412 C 329.181 279.705,329.662 278.970,330.313 277.667 C 330.657 276.979,331.023 276.267,331.127 276.083 C 331.323 275.737,334.024 270.127,334.417 269.250 C 334.540 268.975,334.843 268.262,335.090 267.667 C 335.336 267.071,335.691 266.264,335.879 265.874 C 336.067 265.484,336.180 265.125,336.132 265.076 C 336.083 265.028,335.927 265.235,335.785 265.536 M52.000 270.944 C 52.000 271.130,56.213 279.539,56.830 280.583 C 57.046 280.950,57.362 281.512,57.533 281.833 C 57.703 282.154,58.029 282.717,58.258 283.083 C 58.487 283.450,58.724 283.862,58.785 284.000 C 58.878 284.210,59.628 285.450,60.455 286.759 C 60.567 286.937,60.926 287.545,61.252 288.109 C 61.578 288.673,61.954 289.226,62.089 289.338 C 62.223 289.449,62.333 289.605,62.333 289.684 C 62.333 289.818,62.882 290.690,63.954 292.262 C 64.208 292.635,64.492 293.057,64.583 293.199 C 64.675 293.341,65.087 293.927,65.500 294.501 C 65.912 295.075,66.362 295.711,66.500 295.913 C 67.422 297.271,67.728 297.667,67.855 297.667 C 67.935 297.667,68.000 297.740,68.000 297.829 C 68.000 298.304,75.674 307.789,77.984 310.169 C 78.314 310.508,79.771 312.034,81.223 313.560 C 82.675 315.085,83.943 316.333,84.042 316.333 C 84.140 316.333,83.553 315.669,82.736 314.858 C 80.562 312.700,77.930 309.861,75.991 307.583 C 75.054 306.483,74.236 305.546,74.174 305.500 C 74.111 305.454,73.473 304.667,72.755 303.750 C 72.038 302.833,71.367 302.008,71.264 301.917 C 71.162 301.825,70.672 301.188,70.177 300.500 C 69.681 299.813,69.191 299.175,69.090 299.083 C 68.920 298.931,68.514 298.375,66.126 295.026 C 65.069 293.544,61.931 288.829,61.663 288.321 C 61.546 288.099,61.403 287.879,61.345 287.833 C 61.251 287.759,60.054 285.792,59.571 284.917 C 59.470 284.733,59.029 283.983,58.592 283.250 C 58.154 282.517,57.731 281.767,57.651 281.583 C 57.572 281.400,57.281 280.875,57.005 280.417 C 56.729 279.958,55.524 277.636,54.328 275.257 C 52.130 270.886,52.000 270.644,52.000 270.944 M328.791 280.089 C 328.631 280.304,328.432 280.656,328.351 280.870 C 328.269 281.085,327.781 281.963,327.266 282.822 C 326.750 283.681,326.359 284.414,326.396 284.452 C 326.468 284.524,327.039 283.750,327.222 283.333 C 327.282 283.196,327.552 282.708,327.822 282.250 C 328.092 281.792,328.433 281.157,328.580 280.839 C 328.726 280.522,328.927 280.211,329.027 280.150 C 329.126 280.089,329.179 279.962,329.145 279.868 C 329.111 279.774,328.952 279.874,328.791 280.089 M325.884 285.218 C 325.687 285.511,325.164 286.350,324.721 287.083 C 324.279 287.817,323.758 288.642,323.565 288.917 C 323.124 289.545,322.796 290.167,322.905 290.167 C 322.992 290.167,324.180 288.426,324.388 287.994 C 324.453 287.860,324.724 287.412,324.992 287.000 C 326.090 285.308,326.859 283.772,325.884 285.218 M322.473 290.624 C 322.338 290.785,321.972 291.329,321.660 291.833 C 321.349 292.337,321.052 292.787,321.000 292.833 C 320.948 292.879,320.613 293.367,320.255 293.917 C 319.898 294.467,319.558 294.954,319.500 295.000 C 319.442 295.046,319.141 295.458,318.832 295.917 C 317.812 297.427,313.847 302.637,312.870 303.750 C 312.628 304.025,311.878 304.925,311.201 305.750 C 309.979 307.241,308.675 308.682,304.644 312.996 C 302.169 315.645,300.759 317.011,295.417 321.934 C 294.531 322.750,290.824 325.816,289.116 327.146 C 288.365 327.731,287.712 328.263,287.667 328.327 C 287.621 328.392,287.021 328.850,286.333 329.344 C 285.646 329.838,284.992 330.319,284.881 330.413 C 284.397 330.820,284.193 330.973,283.193 331.675 C 279.091 334.554,274.626 337.500,274.365 337.500 C 274.284 337.500,274.083 337.650,273.917 337.833 C 273.751 338.017,273.554 338.167,273.479 338.167 C 273.404 338.167,272.759 338.517,272.046 338.946 C 271.333 339.375,270.575 339.831,270.361 339.959 C 270.146 340.088,270.004 340.226,270.044 340.266 C 270.127 340.349,271.652 339.527,271.944 339.242 C 272.051 339.137,272.370 338.956,272.652 338.839 C 272.935 338.722,273.167 338.560,273.167 338.480 C 273.167 338.399,273.317 338.333,273.500 338.333 C 273.683 338.333,273.833 338.270,273.833 338.193 C 273.833 338.116,274.171 337.879,274.583 337.667 C 274.996 337.455,275.333 337.218,275.333 337.140 C 275.333 337.063,275.408 337.000,275.500 337.000 C 275.642 337.000,278.928 334.941,279.417 334.546 C 279.508 334.472,279.996 334.133,280.500 333.793 C 282.624 332.361,284.859 330.740,286.197 329.661 C 286.535 329.389,286.891 329.167,286.989 329.167 C 287.087 329.167,287.167 329.105,287.167 329.030 C 287.167 328.955,287.635 328.556,288.208 328.142 C 289.573 327.158,293.210 324.153,295.158 322.401 C 298.852 319.079,300.106 317.901,302.500 315.503 C 304.012 313.988,306.294 311.586,307.569 310.166 C 308.845 308.745,309.989 307.523,310.111 307.450 C 310.233 307.377,310.333 307.208,310.333 307.075 C 310.333 306.942,310.394 306.833,310.467 306.833 C 310.541 306.833,311.159 306.143,311.842 305.298 C 312.525 304.454,313.233 303.597,313.417 303.394 C 313.600 303.192,313.900 302.820,314.083 302.568 C 314.700 301.722,315.991 300.086,316.308 299.750 C 316.480 299.567,316.874 299.023,317.183 298.542 C 317.492 298.060,317.802 297.667,317.872 297.667 C 317.943 297.667,318.000 297.579,318.000 297.472 C 318.000 297.365,318.114 297.159,318.254 297.014 C 318.489 296.770,319.868 294.892,320.250 294.294 C 320.342 294.151,320.660 293.685,320.958 293.259 C 321.256 292.832,321.500 292.418,321.500 292.339 C 321.500 292.259,321.559 292.169,321.632 292.139 C 321.815 292.062,322.864 290.475,322.785 290.396 C 322.749 290.360,322.609 290.463,322.473 290.624 M85.276 317.609 C 86.250 318.540,87.826 320.017,89.667 321.725 C 90.083 322.111,92.598 324.246,94.333 325.688 C 96.533 327.514,100.440 330.525,102.135 331.701 C 102.438 331.911,102.776 332.159,102.885 332.251 C 102.994 332.343,103.533 332.718,104.083 333.084 C 104.633 333.450,105.121 333.790,105.167 333.839 C 105.244 333.922,106.881 335.044,107.468 335.417 C 107.612 335.508,108.139 335.846,108.637 336.167 C 109.136 336.487,109.939 336.975,110.422 337.250 C 110.905 337.525,111.439 337.870,111.608 338.016 C 111.778 338.163,112.029 338.330,112.167 338.388 C 112.304 338.446,112.691 338.663,113.026 338.871 C 114.362 339.701,115.600 340.421,115.912 340.549 C 116.093 340.623,116.280 340.746,116.329 340.823 C 116.377 340.900,116.679 341.083,117.000 341.229 C 117.321 341.376,118.408 341.948,119.417 342.500 C 121.295 343.529,125.182 345.468,128.000 346.782 C 130.197 347.807,130.439 347.915,131.667 348.421 C 132.262 348.667,133.038 349.010,133.391 349.184 C 133.743 349.358,134.104 349.500,134.192 349.500 C 134.280 349.500,134.671 349.646,135.062 349.824 C 135.453 350.002,136.087 350.264,136.470 350.407 C 136.853 350.550,137.448 350.776,137.792 350.909 C 138.901 351.339,143.234 352.857,143.750 352.996 C 144.025 353.071,144.587 353.248,145.000 353.391 C 146.865 354.035,147.865 354.359,148.171 354.417 C 148.352 354.452,149.044 354.642,149.709 354.839 C 150.373 355.035,151.404 355.341,152.000 355.517 C 152.596 355.694,153.184 355.837,153.307 355.836 C 153.431 355.834,154.048 355.990,154.679 356.182 C 155.310 356.373,155.916 356.500,156.026 356.463 C 156.136 356.427,155.557 356.228,154.738 356.022 C 153.290 355.658,152.808 355.525,149.500 354.583 C 145.961 353.576,138.451 351.057,137.058 350.410 C 136.769 350.276,136.490 350.167,136.438 350.167 C 136.386 350.167,135.933 349.979,135.432 349.750 C 134.931 349.521,134.419 349.333,134.294 349.333 C 134.169 349.333,133.995 349.272,133.908 349.197 C 133.821 349.121,133.225 348.847,132.583 348.587 C 131.506 348.151,130.641 347.776,128.917 347.000 C 127.172 346.214,119.226 342.240,119.043 342.062 C 118.929 341.951,118.573 341.773,118.252 341.667 C 117.930 341.561,117.667 341.410,117.667 341.332 C 117.667 341.253,117.498 341.137,117.292 341.072 C 116.857 340.937,112.530 338.405,111.134 337.470 C 110.612 337.120,110.144 336.833,110.094 336.833 C 109.927 336.833,103.254 332.286,101.229 330.793 C 98.947 329.108,96.748 327.438,96.537 327.227 C 96.419 327.110,95.507 326.373,94.509 325.590 C 93.511 324.807,92.669 324.110,92.639 324.041 C 92.608 323.972,91.646 323.121,90.500 322.150 C 89.354 321.179,87.840 319.829,87.136 319.151 C 85.264 317.348,84.603 316.748,84.328 316.600 C 84.194 316.528,84.620 316.982,85.276 317.609 M269.121 340.667 C 268.888 340.850,268.660 341.000,268.614 341.000 C 268.568 341.000,267.981 341.311,267.310 341.691 C 266.191 342.326,259.710 345.623,258.572 346.137 C 253.523 348.419,250.269 349.788,247.417 350.828 C 246.117 351.303,246.000 351.359,246.000 351.515 C 246.000 351.596,246.244 351.552,246.542 351.418 C 246.840 351.284,247.770 350.912,248.610 350.592 C 249.450 350.271,250.387 349.903,250.693 349.773 C 251.226 349.548,252.712 348.938,253.417 348.657 C 253.600 348.583,254.275 348.285,254.917 347.995 C 255.558 347.704,256.421 347.320,256.833 347.142 C 257.674 346.779,258.216 346.520,261.667 344.838 C 264.454 343.479,266.496 342.415,266.782 342.173 C 266.891 342.081,267.285 341.883,267.657 341.734 C 268.029 341.586,268.333 341.405,268.333 341.333 C 268.333 341.262,268.502 341.157,268.708 341.102 C 269.147 340.984,270.004 340.342,269.731 340.337 C 269.629 340.335,269.354 340.483,269.121 340.667 M245.167 351.617 C 245.029 351.666,244.692 351.803,244.417 351.919 C 244.142 352.036,243.403 352.306,242.776 352.519 C 242.148 352.732,241.721 352.935,241.826 352.970 C 241.931 353.005,242.384 352.876,242.831 352.683 C 243.279 352.491,243.787 352.333,243.961 352.333 C 244.135 352.333,244.334 352.277,244.403 352.208 C 244.471 352.140,244.840 351.956,245.222 351.801 C 245.841 351.549,245.793 351.390,245.167 351.617 M240.333 353.333 C 239.921 353.506,239.696 353.648,239.833 353.648 C 239.971 353.648,240.421 353.506,240.833 353.333 C 241.246 353.160,241.471 353.019,241.333 353.019 C 241.196 353.019,240.746 353.160,240.333 353.333 M238.500 353.858 C 238.271 353.952,237.296 354.252,236.333 354.524 C 235.371 354.796,234.102 355.164,233.514 355.342 C 232.925 355.521,232.338 355.667,232.208 355.667 C 232.078 355.667,231.434 355.811,230.777 355.987 C 225.373 357.435,220.741 358.321,212.000 359.578 C 210.396 359.809,209.613 359.962,210.260 359.917 C 210.908 359.873,212.070 359.725,212.844 359.588 C 213.617 359.451,214.500 359.338,214.806 359.336 C 215.957 359.330,224.727 357.705,227.583 356.969 C 228.317 356.780,229.217 356.570,229.583 356.502 C 229.950 356.434,230.737 356.251,231.333 356.095 C 233.588 355.503,234.771 355.185,235.417 354.999 C 235.783 354.893,236.571 354.665,237.167 354.493 C 238.673 354.059,239.647 353.681,239.250 353.685 C 239.067 353.686,238.729 353.765,238.500 353.858 M156.420 356.506 C 156.516 356.660,158.821 357.235,158.925 357.130 C 158.967 357.088,158.404 356.903,157.673 356.718 C 156.942 356.533,156.378 356.438,156.420 356.506 M159.259 357.152 C 159.171 357.294,165.580 358.669,166.322 358.668 C 166.545 358.667,167.557 358.813,168.572 358.992 C 170.998 359.421,175.451 360.007,176.083 359.982 C 176.762 359.954,176.510 359.910,173.333 359.504 C 168.486 358.885,164.679 358.243,161.036 357.431 C 160.094 357.221,159.294 357.095,159.259 357.152 M177.250 359.992 C 177.908 360.196,183.042 360.674,184.187 360.639 C 184.929 360.615,184.968 360.601,184.417 360.555 C 181.640 360.321,177.815 359.975,177.333 359.912 C 176.756 359.838,176.755 359.839,177.250 359.992 M205.417 360.195 C 203.235 360.451,201.164 360.520,194.023 360.578 C 189.223 360.617,185.248 360.697,185.190 360.756 C 184.690 361.260,206.299 360.556,208.250 360.005 C 208.957 359.805,208.454 359.839,205.417 360.195 " stroke="none" fill="#5c5c5b" fill-rule="evenodd"></path><path id="path4" d="M202.917 127.433 C 199.770 127.792,194.206 128.944,193.788 129.324 C 193.717 129.388,194.430 129.573,195.371 129.734 C 204.778 131.347,225.502 138.465,232.294 142.415 L 233.339 143.022 232.940 141.964 C 228.971 131.418,217.341 125.789,202.917 127.433 " stroke="none" fill="#059444" fill-rule="evenodd"></path></g></svg>
