<svg id="svg" version="1.1" xmlns="http://www.w3.org/2000/svg" xmlns:xlink="http://www.w3.org/1999/xlink" width="40" height="40" viewBox="0, 0, 400,356.8263045032166"><g id="svgg"><path id="path0" d="M138.956 139.814 L 138.956 160.972 156.826 160.972 L 174.696 160.972 174.696 210.293 L 174.696 259.614 195.854 259.614 L 217.012 259.614 217.012 189.135 L 217.012 118.656 177.984 118.656 L 138.956 118.656 138.956 139.814 M245.032 119.071 C 227.256 122.884,221.763 145.095,235.810 156.362 C 249.982 167.729,271.167 156.809,270.111 138.681 C 269.371 125.995,257.183 116.464,245.032 119.071 " stroke="none" fill="#fbfbfb" fill-rule="evenodd"></path><path id="path1" d="M197.856 30.593 C 197.856 31.152,197.665 31.165,189.537 31.165 C 181.459 31.165,181.214 31.182,181.069 31.737 C 180.930 32.269,180.679 32.309,177.495 32.309 C 174.311 32.309,174.060 32.349,173.921 32.881 C 173.784 33.404,173.531 33.452,170.946 33.452 C 168.122 33.452,168.120 33.453,168.120 34.167 L 168.120 34.882 165.118 34.882 C 162.306 34.882,162.116 34.918,162.116 35.454 C 162.116 35.967,161.925 36.026,160.257 36.026 C 158.589 36.026,158.399 36.084,158.399 36.598 C 158.399 37.122,158.208 37.169,156.112 37.169 C 154.015 37.169,153.824 37.217,153.824 37.741 C 153.824 38.254,153.634 38.313,151.966 38.313 C 150.298 38.313,150.107 38.372,150.107 38.885 C 150.107 39.393,149.917 39.457,148.392 39.457 C 146.881 39.457,146.676 39.523,146.676 40.015 C 146.676 40.500,146.442 40.584,144.889 40.658 C 143.284 40.735,143.093 40.809,143.011 41.387 C 142.934 41.929,142.743 42.030,141.796 42.030 C 140.863 42.030,140.672 42.127,140.672 42.602 C 140.672 43.089,140.481 43.174,139.385 43.174 C 138.289 43.174,138.099 43.258,138.099 43.746 C 138.099 44.254,137.908 44.317,136.383 44.317 C 134.858 44.317,134.668 44.381,134.668 44.889 C 134.668 45.366,134.477 45.461,133.524 45.461 C 132.571 45.461,132.380 45.556,132.380 46.033 C 132.380 46.512,132.190 46.605,131.210 46.605 C 130.280 46.605,130.009 46.722,129.890 47.177 C 129.773 47.625,129.500 47.748,128.630 47.748 C 127.636 47.748,127.520 47.823,127.520 48.463 C 127.520 49.107,127.405 49.178,126.376 49.178 C 125.423 49.178,125.232 49.273,125.232 49.750 C 125.232 50.237,125.042 50.322,123.946 50.322 C 122.850 50.322,122.659 50.406,122.659 50.893 C 122.659 51.370,122.468 51.465,121.515 51.465 C 120.562 51.465,120.372 51.561,120.372 52.037 C 120.372 52.418,120.181 52.609,119.800 52.609 C 119.419 52.609,119.228 52.800,119.228 53.181 C 119.228 53.660,119.037 53.753,118.058 53.753 C 117.138 53.753,116.856 53.872,116.742 54.309 C 116.637 54.709,116.302 54.890,115.553 54.952 C 114.722 55.022,114.492 55.170,114.419 55.683 C 114.360 56.096,114.130 56.326,113.776 56.326 C 113.414 56.326,113.224 56.523,113.224 56.898 C 113.224 57.374,113.033 57.470,112.080 57.470 C 111.127 57.470,110.936 57.565,110.936 58.041 C 110.936 58.461,110.746 58.613,110.222 58.613 C 109.697 58.613,109.507 58.766,109.507 59.185 C 109.507 59.662,109.316 59.757,108.363 59.757 C 107.410 59.757,107.219 59.852,107.219 60.329 C 107.219 60.710,107.029 60.901,106.648 60.901 C 106.266 60.901,106.076 61.091,106.076 61.472 C 106.076 61.854,105.885 62.044,105.504 62.044 C 105.085 62.044,104.932 62.235,104.932 62.759 C 104.932 63.416,104.827 63.474,103.645 63.474 C 102.549 63.474,102.359 63.559,102.359 64.046 C 102.359 64.427,102.168 64.618,101.787 64.618 C 101.406 64.618,101.215 64.808,101.215 65.189 C 101.215 65.571,101.025 65.761,100.643 65.761 C 100.262 65.761,100.071 65.952,100.071 66.333 C 100.071 66.714,99.881 66.905,99.500 66.905 C 99.118 66.905,98.928 67.096,98.928 67.477 C 98.928 67.953,98.737 68.049,97.784 68.049 C 96.845 68.049,96.640 68.147,96.640 68.601 C 96.640 68.955,96.411 69.185,95.997 69.244 C 95.584 69.303,95.321 69.565,95.262 69.979 C 95.204 70.392,94.974 70.622,94.619 70.622 C 94.258 70.622,94.067 70.819,94.067 71.194 C 94.067 71.575,93.877 71.766,93.495 71.766 C 93.114 71.766,92.924 71.956,92.924 72.337 C 92.924 72.719,92.733 72.909,92.352 72.909 C 91.970 72.909,91.780 73.100,91.780 73.481 C 91.780 73.862,91.589 74.053,91.208 74.053 C 90.827 74.053,90.636 74.244,90.636 74.625 C 90.636 75.006,90.446 75.197,90.064 75.197 C 89.690 75.197,89.492 75.387,89.492 75.749 C 89.492 76.103,89.263 76.333,88.849 76.392 C 88.436 76.451,88.173 76.713,88.114 77.127 C 88.056 77.540,87.826 77.770,87.471 77.770 C 87.110 77.770,86.919 77.967,86.919 78.342 C 86.919 78.723,86.729 78.914,86.347 78.914 C 85.966 78.914,85.776 79.104,85.776 79.485 C 85.776 79.867,85.585 80.057,85.204 80.057 C 84.822 80.057,84.632 80.248,84.632 80.629 C 84.632 81.010,84.441 81.201,84.060 81.201 C 83.679 81.201,83.488 81.391,83.488 81.773 C 83.488 82.154,83.298 82.345,82.916 82.345 C 82.542 82.345,82.345 82.535,82.345 82.896 C 82.345 83.251,82.115 83.481,81.701 83.540 C 81.288 83.599,81.025 83.861,80.967 84.274 C 80.908 84.688,80.678 84.918,80.323 84.918 C 79.962 84.918,79.771 85.115,79.771 85.490 C 79.771 85.871,79.581 86.061,79.199 86.061 C 78.818 86.061,78.628 86.252,78.628 86.633 C 78.628 87.015,78.437 87.205,78.056 87.205 C 77.675 87.205,77.484 87.396,77.484 87.777 C 77.484 88.158,77.293 88.349,76.912 88.349 C 76.436 88.349,76.340 88.539,76.340 89.492 C 76.340 90.446,76.245 90.636,75.768 90.636 C 75.349 90.636,75.197 90.827,75.197 91.351 C 75.197 91.875,75.044 92.066,74.625 92.066 C 74.244 92.066,74.053 92.256,74.053 92.638 C 74.053 93.057,73.862 93.209,73.338 93.209 C 72.814 93.209,72.623 93.362,72.623 93.781 C 72.623 94.162,72.433 94.353,72.051 94.353 C 71.575 94.353,71.480 94.544,71.480 95.497 C 71.480 96.353,71.365 96.640,71.024 96.640 C 70.773 96.640,70.501 96.898,70.419 97.212 C 70.336 97.529,70.029 97.784,69.731 97.784 C 69.283 97.784,69.192 98.001,69.192 99.071 C 69.192 100.167,69.108 100.357,68.620 100.357 C 68.239 100.357,68.049 100.548,68.049 100.929 C 68.049 101.310,67.858 101.501,67.477 101.501 C 67.102 101.501,66.905 101.692,66.905 102.053 C 66.905 102.408,66.675 102.638,66.262 102.696 C 65.749 102.769,65.601 102.999,65.531 103.831 C 65.469 104.580,65.288 104.915,64.888 105.019 C 64.451 105.133,64.332 105.416,64.332 106.335 C 64.332 107.315,64.239 107.505,63.760 107.505 C 63.379 107.505,63.188 107.696,63.188 108.077 C 63.188 108.458,62.997 108.649,62.616 108.649 C 62.140 108.649,62.044 108.840,62.044 109.793 C 62.044 110.746,61.949 110.936,61.472 110.936 C 60.985 110.936,60.901 111.127,60.901 112.223 C 60.901 113.319,60.816 113.510,60.329 113.510 C 59.948 113.510,59.757 113.700,59.757 114.081 C 59.757 114.501,59.566 114.653,59.042 114.653 C 58.399 114.653,58.327 114.768,58.327 115.797 C 58.327 116.750,58.232 116.941,57.756 116.941 C 57.282 116.941,57.184 117.131,57.184 118.051 C 57.184 118.921,57.060 119.194,56.612 119.311 C 56.158 119.430,56.040 119.701,56.040 120.631 C 56.040 121.611,55.947 121.801,55.468 121.801 C 54.992 121.801,54.896 121.992,54.896 122.945 C 54.896 123.898,54.801 124.089,54.325 124.089 C 53.848 124.089,53.753 124.279,53.753 125.232 C 53.753 126.185,53.657 126.376,53.181 126.376 C 52.668 126.376,52.609 126.567,52.609 128.234 C 52.609 130.026,52.583 130.093,51.894 130.093 C 51.254 130.093,51.179 130.210,51.179 131.203 C 51.179 132.073,51.056 132.346,50.608 132.463 C 50.115 132.592,50.036 132.853,50.036 134.355 C 50.036 135.907,49.973 136.097,49.464 136.097 C 48.987 136.097,48.892 136.288,48.892 137.241 C 48.892 138.194,48.797 138.385,48.320 138.385 C 47.807 138.385,47.748 138.575,47.748 140.243 C 47.748 141.911,47.690 142.102,47.177 142.102 C 46.668 142.102,46.605 142.292,46.605 143.817 C 46.605 145.342,46.541 145.533,46.033 145.533 C 45.506 145.533,45.461 145.723,45.461 147.963 C 45.461 150.365,45.453 150.393,44.746 150.393 C 44.044 150.393,44.031 150.433,44.031 152.647 C 44.031 154.661,43.970 154.917,43.460 155.051 C 42.947 155.185,42.888 155.441,42.888 157.514 C 42.888 159.638,42.841 159.828,42.316 159.828 C 41.780 159.828,41.744 160.019,41.744 162.831 C 41.744 165.642,41.708 165.833,41.172 165.833 C 40.627 165.833,40.600 166.023,40.600 169.979 C 40.600 173.934,40.574 174.124,40.029 174.124 C 39.470 174.124,39.457 174.315,39.457 182.416 C 39.457 190.517,39.444 190.708,38.885 190.708 C 38.338 190.708,38.313 190.898,38.313 194.996 C 38.313 199.095,38.338 199.285,38.885 199.285 C 39.444 199.285,39.457 199.476,39.457 207.577 C 39.457 215.678,39.470 215.868,40.029 215.868 C 40.570 215.868,40.600 216.059,40.600 219.442 C 40.600 222.826,40.631 223.016,41.172 223.016 C 41.708 223.016,41.744 223.207,41.744 226.019 C 41.744 228.830,41.780 229.021,42.316 229.021 C 42.851 229.021,42.888 229.211,42.888 232.023 C 42.888 234.814,42.927 235.025,43.448 235.025 C 43.952 235.025,44.017 235.260,44.091 237.384 C 44.169 239.583,44.218 239.749,44.818 239.834 C 45.402 239.917,45.461 240.080,45.461 241.621 C 45.461 243.126,45.525 243.317,46.033 243.317 C 46.546 243.317,46.605 243.507,46.605 245.175 C 46.605 246.843,46.663 247.034,47.177 247.034 C 47.685 247.034,47.748 247.224,47.748 248.749 C 47.748 250.274,47.812 250.465,48.320 250.465 C 48.830 250.465,48.892 250.655,48.892 252.207 C 48.892 253.709,48.971 253.970,49.464 254.099 C 49.912 254.216,50.036 254.489,50.036 255.359 C 50.036 256.278,50.134 256.469,50.608 256.469 C 51.116 256.469,51.179 256.660,51.179 258.184 C 51.179 259.824,51.211 259.900,51.894 259.900 C 52.551 259.900,52.609 260.005,52.609 261.187 C 52.609 262.283,52.694 262.473,53.181 262.473 C 53.657 262.473,53.753 262.664,53.753 263.617 C 53.753 264.570,53.848 264.761,54.325 264.761 C 54.801 264.761,54.896 264.951,54.896 265.904 C 54.896 266.857,54.992 267.048,55.468 267.048 C 55.947 267.048,56.040 267.239,56.040 268.218 C 56.040 269.148,56.158 269.419,56.612 269.538 C 57.060 269.655,57.184 269.928,57.184 270.798 C 57.184 271.718,57.282 271.909,57.756 271.909 C 58.232 271.909,58.327 272.099,58.327 273.052 C 58.327 274.081,58.399 274.196,59.042 274.196 C 59.699 274.196,59.757 274.301,59.757 275.482 C 59.757 276.579,59.842 276.769,60.329 276.769 C 60.710 276.769,60.901 276.960,60.901 277.341 C 60.901 277.722,61.091 277.913,61.472 277.913 C 61.949 277.913,62.044 278.103,62.044 279.056 C 62.044 280.010,62.140 280.200,62.616 280.200 C 63.095 280.200,63.188 280.391,63.188 281.371 C 63.188 282.301,63.305 282.572,63.760 282.691 C 64.074 282.773,64.332 283.030,64.332 283.262 C 64.332 283.495,64.589 283.752,64.904 283.834 C 65.351 283.951,65.475 284.224,65.475 285.094 C 65.475 286.088,65.550 286.204,66.190 286.204 C 66.714 286.204,66.905 286.357,66.905 286.776 C 66.905 287.157,67.096 287.348,67.477 287.348 C 67.964 287.348,68.049 287.539,68.049 288.635 C 68.049 289.731,68.133 289.921,68.620 289.921 C 69.002 289.921,69.192 290.112,69.192 290.493 C 69.192 290.874,69.383 291.065,69.764 291.065 C 70.145 291.065,70.336 291.256,70.336 291.637 C 70.336 292.018,70.527 292.209,70.908 292.209 C 71.384 292.209,71.480 292.399,71.480 293.352 C 71.480 294.305,71.575 294.496,72.051 294.496 C 72.433 294.496,72.623 294.687,72.623 295.068 C 72.623 295.487,72.814 295.640,73.338 295.640 C 73.910 295.640,74.053 295.783,74.053 296.355 C 74.053 296.879,74.205 297.069,74.625 297.069 C 75.101 297.069,75.197 297.260,75.197 298.213 C 75.197 299.166,75.292 299.357,75.768 299.357 C 76.150 299.357,76.340 299.547,76.340 299.929 C 76.340 300.310,76.531 300.500,76.912 300.500 C 77.293 300.500,77.484 300.691,77.484 301.072 C 77.484 301.453,77.675 301.644,78.056 301.644 C 78.437 301.644,78.628 301.835,78.628 302.216 C 78.628 302.597,78.818 302.788,79.199 302.788 C 79.589 302.788,79.771 302.978,79.771 303.386 C 79.771 303.735,79.999 304.045,80.317 304.128 C 80.617 304.206,80.926 304.516,81.005 304.816 C 81.088 305.133,81.397 305.361,81.746 305.361 C 82.154 305.361,82.345 305.543,82.345 305.933 C 82.345 306.314,82.535 306.505,82.916 306.505 C 83.298 306.505,83.488 306.695,83.488 307.076 C 83.488 307.458,83.679 307.648,84.060 307.648 C 84.537 307.648,84.632 307.839,84.632 308.792 C 84.632 309.745,84.727 309.936,85.204 309.936 C 85.593 309.936,85.776 310.126,85.776 310.534 C 85.776 310.892,86.005 311.193,86.347 311.282 C 86.662 311.365,86.919 311.622,86.919 311.854 C 86.919 312.087,87.165 312.341,87.465 312.419 C 87.765 312.498,88.074 312.807,88.153 313.107 C 88.264 313.532,88.555 313.653,89.466 313.653 C 90.446 313.653,90.636 313.746,90.636 314.224 C 90.636 314.606,90.827 314.796,91.208 314.796 C 91.589 314.796,91.780 314.987,91.780 315.368 C 91.780 315.749,91.970 315.940,92.352 315.940 C 92.733 315.940,92.924 316.131,92.924 316.512 C 92.924 316.893,93.114 317.084,93.495 317.084 C 93.877 317.084,94.067 317.274,94.067 317.655 C 94.067 318.030,94.258 318.227,94.619 318.227 C 94.974 318.227,95.204 318.457,95.262 318.871 C 95.321 319.284,95.584 319.547,95.997 319.605 C 96.411 319.664,96.640 319.894,96.640 320.249 C 96.640 320.610,96.838 320.801,97.212 320.801 C 97.594 320.801,97.784 320.991,97.784 321.372 C 97.784 321.849,97.975 321.944,98.928 321.944 C 99.881 321.944,100.071 322.040,100.071 322.516 C 100.071 322.897,100.262 323.088,100.643 323.088 C 101.025 323.088,101.215 323.279,101.215 323.660 C 101.215 324.041,101.406 324.232,101.787 324.232 C 102.168 324.232,102.359 324.422,102.359 324.803 C 102.359 325.223,102.549 325.375,103.074 325.375 C 103.645 325.375,103.788 325.518,103.788 326.090 C 103.788 326.733,103.903 326.805,104.932 326.805 C 105.885 326.805,106.076 326.900,106.076 327.377 C 106.076 327.758,106.266 327.949,106.648 327.949 C 107.029 327.949,107.219 328.139,107.219 328.520 C 107.219 328.997,107.410 329.092,108.363 329.092 C 109.316 329.092,109.507 329.188,109.507 329.664 C 109.507 330.083,109.697 330.236,110.222 330.236 C 110.746 330.236,110.936 330.388,110.936 330.808 C 110.936 331.284,111.127 331.380,112.080 331.380 C 113.033 331.380,113.224 331.475,113.224 331.951 C 113.224 332.326,113.414 332.523,113.776 332.523 C 114.130 332.523,114.360 332.753,114.419 333.167 C 114.492 333.679,114.722 333.828,115.553 333.897 C 116.302 333.959,116.637 334.141,116.742 334.540 C 116.827 334.868,117.133 335.096,117.486 335.096 C 117.894 335.096,118.084 335.279,118.084 335.668 C 118.084 336.145,118.275 336.240,119.228 336.240 C 120.181 336.240,120.372 336.335,120.372 336.812 C 120.372 337.289,120.562 337.384,121.515 337.384 C 122.468 337.384,122.659 337.479,122.659 337.956 C 122.659 338.443,122.850 338.528,123.946 338.528 C 125.042 338.528,125.232 338.612,125.232 339.099 C 125.232 339.576,125.423 339.671,126.376 339.671 C 127.405 339.671,127.520 339.743,127.520 340.386 C 127.520 341.026,127.636 341.101,128.630 341.101 C 129.500 341.101,129.773 341.225,129.890 341.673 C 130.009 342.127,130.280 342.244,131.210 342.244 C 132.190 342.244,132.380 342.338,132.380 342.816 C 132.380 343.293,132.571 343.388,133.524 343.388 C 134.477 343.388,134.668 343.483,134.668 343.960 C 134.668 344.437,134.858 344.532,135.811 344.532 C 136.764 344.532,136.955 344.627,136.955 345.104 C 136.955 345.591,137.146 345.675,138.242 345.675 C 139.338 345.675,139.528 345.760,139.528 346.247 C 139.528 346.755,139.719 346.819,141.224 346.819 C 142.765 346.819,142.928 346.878,143.011 347.462 C 143.093 348.040,143.284 348.114,144.889 348.191 C 146.442 348.265,146.676 348.349,146.676 348.834 C 146.676 349.295,146.876 349.392,147.820 349.392 C 148.773 349.392,148.964 349.488,148.964 349.964 C 148.964 350.473,149.154 350.536,150.679 350.536 C 152.204 350.536,152.395 350.600,152.395 351.108 C 152.395 351.635,152.585 351.680,154.825 351.680 C 157.065 351.680,157.255 351.725,157.255 352.252 C 157.255 352.765,157.446 352.823,159.114 352.823 C 160.782 352.823,160.972 352.882,160.972 353.395 C 160.972 353.929,161.163 353.967,163.811 353.967 C 166.538 353.967,166.654 353.993,166.742 354.610 C 166.827 355.210,166.993 355.259,169.192 355.337 C 171.243 355.409,171.551 355.487,171.551 355.935 C 171.551 356.638,178.137 356.825,202.859 356.825 C 226.778 356.825,232.452 356.654,232.452 355.933 C 232.452 355.474,232.777 355.408,235.382 355.335 C 238.175 355.258,238.317 355.224,238.404 354.610 C 238.490 354.005,238.630 353.967,240.763 353.967 C 242.840 353.967,243.031 353.919,243.031 353.395 C 243.031 352.868,243.221 352.823,245.461 352.823 C 247.701 352.823,247.891 352.779,247.891 352.252 C 247.891 351.738,248.082 351.680,249.750 351.680 C 251.418 351.680,251.608 351.621,251.608 351.108 C 251.608 350.600,251.799 350.536,253.324 350.536 C 254.849 350.536,255.039 350.473,255.039 349.964 C 255.039 349.455,255.230 349.392,256.782 349.392 C 258.283 349.392,258.545 349.314,258.673 348.821 C 258.802 348.330,259.063 348.249,260.505 348.249 C 262.109 348.249,262.187 348.215,262.187 347.534 C 262.187 346.891,262.302 346.819,263.331 346.819 C 264.284 346.819,264.475 346.724,264.475 346.247 C 264.475 345.734,264.665 345.675,266.333 345.675 C 268.001 345.675,268.192 345.617,268.192 345.104 C 268.192 344.627,268.382 344.532,269.335 344.532 C 270.288 344.532,270.479 344.437,270.479 343.960 C 270.479 343.481,270.670 343.388,271.649 343.388 C 272.579 343.388,272.851 343.271,272.969 342.816 C 273.086 342.368,273.359 342.244,274.229 342.244 C 275.149 342.244,275.340 342.146,275.340 341.673 C 275.340 341.196,275.530 341.101,276.483 341.101 C 277.513 341.101,277.627 341.029,277.627 340.386 C 277.627 339.729,277.732 339.671,278.914 339.671 C 280.010 339.671,280.200 339.586,280.200 339.099 C 280.200 338.623,280.391 338.528,281.344 338.528 C 282.297 338.528,282.487 338.432,282.487 337.956 C 282.487 337.479,282.678 337.384,283.631 337.384 C 284.584 337.384,284.775 337.289,284.775 336.812 C 284.775 336.431,284.965 336.240,285.347 336.240 C 285.728 336.240,285.919 336.050,285.919 335.668 C 285.919 335.190,286.109 335.096,287.089 335.096 C 288.019 335.096,288.290 334.979,288.409 334.525 C 288.526 334.077,288.799 333.953,289.669 333.953 C 290.663 333.953,290.779 333.878,290.779 333.238 C 290.779 332.714,290.932 332.523,291.351 332.523 C 291.732 332.523,291.923 332.333,291.923 331.951 C 291.923 331.464,292.113 331.380,293.209 331.380 C 294.305 331.380,294.496 331.295,294.496 330.808 C 294.496 330.426,294.687 330.236,295.068 330.236 C 295.449 330.236,295.640 330.045,295.640 329.664 C 295.640 329.188,295.830 329.092,296.783 329.092 C 297.736 329.092,297.927 328.997,297.927 328.520 C 297.927 328.139,298.118 327.949,298.499 327.949 C 298.880 327.949,299.071 327.758,299.071 327.377 C 299.071 326.995,299.261 326.805,299.643 326.805 C 300.062 326.805,300.214 326.614,300.214 326.090 C 300.214 325.434,300.319 325.375,301.501 325.375 C 302.597 325.375,302.788 325.291,302.788 324.803 C 302.788 324.422,302.978 324.232,303.360 324.232 C 303.741 324.232,303.931 324.041,303.931 323.660 C 303.931 323.279,304.122 323.088,304.503 323.088 C 304.884 323.088,305.075 322.897,305.075 322.516 C 305.075 322.135,305.266 321.944,305.647 321.944 C 306.028 321.944,306.219 321.754,306.219 321.372 C 306.219 320.894,306.409 320.801,307.389 320.801 C 308.300 320.801,308.591 320.680,308.702 320.255 C 308.781 319.955,309.090 319.646,309.390 319.567 C 309.708 319.484,309.936 319.174,309.936 318.826 C 309.936 318.418,310.118 318.227,310.508 318.227 C 310.889 318.227,311.079 318.037,311.079 317.655 C 311.079 317.274,311.270 317.084,311.651 317.084 C 312.032 317.084,312.223 316.893,312.223 316.512 C 312.223 316.131,312.414 315.940,312.795 315.940 C 313.176 315.940,313.367 315.749,313.367 315.368 C 313.367 314.987,313.557 314.796,313.939 314.796 C 314.320 314.796,314.510 314.606,314.510 314.224 C 314.510 313.835,314.701 313.653,315.109 313.653 C 315.457 313.653,315.767 313.425,315.850 313.107 C 315.929 312.807,316.238 312.498,316.538 312.419 C 316.838 312.341,317.084 312.087,317.084 311.854 C 317.084 311.622,317.341 311.365,317.655 311.282 C 317.998 311.193,318.227 310.892,318.227 310.534 C 318.227 310.126,318.409 309.936,318.799 309.936 C 319.180 309.936,319.371 309.745,319.371 309.364 C 319.371 308.983,319.562 308.792,319.943 308.792 C 320.324 308.792,320.515 308.601,320.515 308.220 C 320.515 307.839,320.705 307.648,321.086 307.648 C 321.468 307.648,321.658 307.458,321.658 307.076 C 321.658 306.687,321.849 306.505,322.257 306.505 C 322.605 306.505,322.915 306.277,322.998 305.959 C 323.077 305.659,323.386 305.350,323.686 305.271 C 323.986 305.193,324.232 304.939,324.232 304.706 C 324.232 304.474,324.489 304.217,324.803 304.134 C 325.146 304.045,325.375 303.744,325.375 303.386 C 325.375 302.978,325.557 302.788,325.947 302.788 C 326.328 302.788,326.519 302.597,326.519 302.216 C 326.519 301.835,326.710 301.644,327.091 301.644 C 327.472 301.644,327.663 301.453,327.663 301.072 C 327.663 300.691,327.853 300.500,328.234 300.500 C 328.711 300.500,328.806 300.310,328.806 299.357 C 328.806 298.387,328.897 298.213,329.405 298.213 C 329.753 298.213,330.063 297.985,330.146 297.668 C 330.225 297.368,330.534 297.058,330.834 296.980 C 331.152 296.897,331.380 296.587,331.380 296.238 C 331.380 295.830,331.562 295.640,331.951 295.640 C 332.428 295.640,332.523 295.449,332.523 294.496 C 332.523 293.543,332.619 293.352,333.095 293.352 C 333.476 293.352,333.667 293.162,333.667 292.781 C 333.667 292.399,333.858 292.209,334.239 292.209 C 334.620 292.209,334.811 292.018,334.811 291.637 C 334.811 291.256,335.001 291.065,335.382 291.065 C 335.870 291.065,335.954 290.874,335.954 289.778 C 335.954 288.597,336.012 288.492,336.669 288.492 C 337.193 288.492,337.384 288.339,337.384 287.920 C 337.384 287.539,337.574 287.348,337.956 287.348 C 338.432 287.348,338.528 287.157,338.528 286.204 C 338.528 285.251,338.623 285.061,339.099 285.061 C 339.481 285.061,339.671 284.870,339.671 284.489 C 339.671 284.108,339.862 283.917,340.243 283.917 C 340.730 283.917,340.815 283.726,340.815 282.630 C 340.815 281.534,340.900 281.344,341.387 281.344 C 341.768 281.344,341.959 281.153,341.959 280.772 C 341.959 280.391,342.149 280.200,342.530 280.200 C 343.005 280.200,343.102 280.010,343.102 279.076 C 343.102 278.129,343.203 277.938,343.746 277.861 C 344.258 277.788,344.406 277.558,344.476 276.727 C 344.538 275.978,344.720 275.643,345.119 275.539 C 345.556 275.424,345.675 275.142,345.675 274.223 C 345.675 273.243,345.769 273.052,346.247 273.052 C 346.629 273.052,346.819 272.862,346.819 272.480 C 346.819 272.099,347.010 271.909,347.391 271.909 C 347.868 271.909,347.963 271.718,347.963 270.765 C 347.963 269.812,348.058 269.621,348.535 269.621 C 349.022 269.621,349.107 269.431,349.107 268.335 C 349.107 267.239,349.191 267.048,349.678 267.048 C 350.186 267.048,350.250 266.857,350.250 265.352 C 350.250 263.812,350.309 263.648,350.893 263.565 C 351.406 263.492,351.554 263.262,351.624 262.431 C 351.686 261.682,351.868 261.347,352.267 261.243 C 352.704 261.128,352.823 260.846,352.823 259.927 C 352.823 258.947,352.917 258.756,353.395 258.756 C 353.872 258.756,353.967 258.566,353.967 257.613 C 353.967 256.660,354.062 256.469,354.539 256.469 C 355.052 256.469,355.111 256.278,355.111 254.610 C 355.111 252.943,355.169 252.752,355.683 252.752 C 356.191 252.752,356.254 252.561,356.254 251.036 C 356.254 249.512,356.318 249.321,356.826 249.321 C 357.339 249.321,357.398 249.130,357.398 247.462 C 357.398 245.671,357.424 245.604,358.113 245.604 C 358.794 245.604,358.828 245.526,358.828 243.922 C 358.828 242.480,358.909 242.218,359.400 242.090 C 359.892 241.961,359.971 241.700,359.971 240.198 C 359.971 238.647,360.034 238.456,360.543 238.456 C 361.067 238.456,361.115 238.265,361.115 236.169 C 361.115 234.072,361.163 233.881,361.687 233.881 C 362.222 233.881,362.259 233.691,362.259 230.879 C 362.259 228.068,362.295 227.877,362.831 227.877 C 363.366 227.877,363.402 227.686,363.402 224.875 C 363.402 222.063,363.439 221.873,363.974 221.873 C 364.520 221.873,364.546 221.682,364.546 217.747 C 364.546 213.686,364.556 213.619,365.189 213.530 L 365.833 213.438 365.833 194.996 L 365.833 176.555 365.189 176.463 C 364.552 176.373,364.546 176.328,364.546 171.674 C 364.546 167.167,364.523 166.976,363.974 166.976 C 363.439 166.976,363.402 166.786,363.402 163.974 C 363.402 161.163,363.366 160.972,362.831 160.972 C 362.306 160.972,362.259 160.782,362.259 158.685 C 362.259 156.588,362.211 156.397,361.687 156.397 C 361.160 156.397,361.115 156.207,361.115 153.967 C 361.115 151.727,361.070 151.537,360.543 151.537 C 360.019 151.537,359.971 151.346,359.971 149.223 C 359.971 147.149,359.912 146.893,359.400 146.759 C 358.909 146.631,358.828 146.369,358.828 144.927 C 358.828 143.324,358.794 143.245,358.113 143.245 C 357.424 143.245,357.398 143.178,357.398 141.387 C 357.398 139.719,357.339 139.528,356.826 139.528 C 356.318 139.528,356.254 139.338,356.254 137.813 C 356.254 136.288,356.191 136.097,355.683 136.097 C 355.196 136.097,355.111 135.907,355.111 134.811 C 355.111 133.715,355.026 133.524,354.539 133.524 C 354.031 133.524,353.967 133.333,353.967 131.808 C 353.967 130.284,353.904 130.093,353.395 130.093 C 352.919 130.093,352.823 129.902,352.823 128.949 C 352.823 128.007,352.725 127.806,352.268 127.806 C 351.819 127.806,351.696 127.573,351.625 126.590 C 351.552 125.580,351.428 125.360,350.893 125.284 C 350.351 125.207,350.250 125.016,350.250 124.069 C 350.250 123.136,350.153 122.945,349.678 122.945 C 349.202 122.945,349.107 122.754,349.107 121.801 C 349.107 120.848,349.011 120.658,348.535 120.658 C 348.048 120.658,347.963 120.467,347.963 119.371 C 347.963 118.275,347.878 118.084,347.391 118.084 C 346.914 118.084,346.819 117.894,346.819 116.941 C 346.819 115.988,346.724 115.797,346.247 115.797 C 345.771 115.797,345.675 115.606,345.675 114.653 C 345.675 113.712,345.577 113.510,345.120 113.510 C 344.671 113.510,344.548 113.277,344.477 112.294 C 344.404 111.284,344.280 111.064,343.746 110.988 C 343.332 110.929,343.102 110.699,343.102 110.345 C 343.102 109.983,342.905 109.793,342.530 109.793 C 342.054 109.793,341.959 109.602,341.959 108.649 C 341.959 107.696,341.863 107.505,341.387 107.505 C 340.900 107.505,340.815 107.315,340.815 106.219 C 340.815 105.149,340.724 104.932,340.276 104.932 C 339.978 104.932,339.671 104.677,339.588 104.360 C 339.506 104.046,339.234 103.788,338.983 103.788 C 338.642 103.788,338.528 103.501,338.528 102.645 C 338.528 101.692,338.432 101.501,337.956 101.501 C 337.574 101.501,337.384 101.310,337.384 100.929 C 337.384 100.510,337.193 100.357,336.669 100.357 C 336.145 100.357,335.954 100.205,335.954 99.786 C 335.954 99.404,335.764 99.214,335.382 99.214 C 334.895 99.214,334.811 99.023,334.811 97.927 C 334.811 96.831,334.726 96.640,334.239 96.640 C 333.858 96.640,333.667 96.450,333.667 96.069 C 333.667 95.687,333.476 95.497,333.095 95.497 C 332.619 95.497,332.523 95.306,332.523 94.353 C 332.523 93.400,332.428 93.209,331.951 93.209 C 331.570 93.209,331.380 93.019,331.380 92.638 C 331.380 92.263,331.189 92.066,330.828 92.066 C 330.473 92.066,330.243 91.836,330.184 91.422 C 330.126 91.009,329.863 90.746,329.450 90.688 C 329.036 90.629,328.806 90.399,328.806 90.044 C 328.806 89.683,328.609 89.492,328.234 89.492 C 327.853 89.492,327.663 89.302,327.663 88.921 C 327.663 88.539,327.472 88.349,327.091 88.349 C 326.614 88.349,326.519 88.158,326.519 87.205 C 326.519 86.252,326.424 86.061,325.947 86.061 C 325.566 86.061,325.375 85.871,325.375 85.490 C 325.375 85.108,325.185 84.918,324.803 84.918 C 324.414 84.918,324.232 84.727,324.232 84.319 C 324.232 83.971,324.004 83.661,323.686 83.578 C 323.386 83.500,323.077 83.190,322.998 82.890 C 322.915 82.572,322.605 82.345,322.257 82.345 C 321.849 82.345,321.658 82.162,321.658 81.773 C 321.658 81.391,321.468 81.201,321.086 81.201 C 320.705 81.201,320.515 81.010,320.515 80.629 C 320.515 80.248,320.324 80.057,319.943 80.057 C 319.562 80.057,319.371 79.867,319.371 79.485 C 319.371 79.104,319.180 78.914,318.799 78.914 C 318.418 78.914,318.227 78.723,318.227 78.342 C 318.227 77.960,318.037 77.770,317.655 77.770 C 317.266 77.770,317.084 77.579,317.084 77.171 C 317.084 76.823,316.856 76.513,316.538 76.430 C 316.238 76.352,315.929 76.042,315.850 75.742 C 315.767 75.424,315.457 75.197,315.109 75.197 C 314.701 75.197,314.510 75.014,314.510 74.625 C 314.510 74.244,314.320 74.053,313.939 74.053 C 313.557 74.053,313.367 73.862,313.367 73.481 C 313.367 73.100,313.176 72.909,312.795 72.909 C 312.414 72.909,312.223 72.719,312.223 72.337 C 312.223 71.956,312.032 71.766,311.651 71.766 C 311.270 71.766,311.079 71.575,311.079 71.194 C 311.079 70.819,310.889 70.622,310.527 70.622 C 310.173 70.622,309.943 70.392,309.884 69.979 C 309.808 69.444,309.588 69.320,308.578 69.247 C 307.595 69.176,307.362 69.053,307.362 68.604 C 307.362 68.239,307.166 68.049,306.791 68.049 C 306.409 68.049,306.219 67.858,306.219 67.477 C 306.219 67.096,306.028 66.905,305.647 66.905 C 305.266 66.905,305.075 66.714,305.075 66.333 C 305.075 65.952,304.884 65.761,304.503 65.761 C 304.122 65.761,303.931 65.571,303.931 65.189 C 303.931 64.713,303.741 64.618,302.788 64.618 C 301.835 64.618,301.644 64.522,301.644 64.046 C 301.644 63.626,301.453 63.474,300.929 63.474 C 300.357 63.474,300.214 63.331,300.214 62.759 C 300.214 62.235,300.062 62.044,299.643 62.044 C 299.261 62.044,299.071 61.854,299.071 61.472 C 299.071 60.996,298.880 60.901,297.927 60.901 C 296.974 60.901,296.783 60.805,296.783 60.329 C 296.783 59.948,296.593 59.757,296.212 59.757 C 295.830 59.757,295.640 59.566,295.640 59.185 C 295.640 58.698,295.449 58.613,294.353 58.613 C 293.257 58.613,293.066 58.529,293.066 58.041 C 293.066 57.660,292.876 57.470,292.495 57.470 C 292.113 57.470,291.923 57.279,291.923 56.898 C 291.923 56.421,291.732 56.326,290.779 56.326 C 289.809 56.326,289.635 56.235,289.635 55.727 C 289.635 55.379,289.408 55.069,289.090 54.986 C 288.790 54.908,288.480 54.598,288.402 54.298 C 288.291 53.874,288.000 53.753,287.089 53.753 C 286.109 53.753,285.919 53.660,285.919 53.181 C 285.919 52.704,285.728 52.609,284.775 52.609 C 283.822 52.609,283.631 52.514,283.631 52.037 C 283.631 51.561,283.441 51.465,282.487 51.465 C 281.534 51.465,281.344 51.370,281.344 50.893 C 281.344 50.512,281.153 50.322,280.772 50.322 C 280.391 50.322,280.200 50.131,280.200 49.750 C 280.200 49.263,280.010 49.178,278.914 49.178 C 277.732 49.178,277.627 49.120,277.627 48.463 C 277.627 47.823,277.510 47.748,276.517 47.748 C 275.647 47.748,275.374 47.625,275.257 47.177 C 275.143 46.743,274.867 46.605,274.113 46.605 C 273.359 46.605,273.083 46.466,272.969 46.033 C 272.840 45.540,272.579 45.461,271.078 45.461 C 269.526 45.461,269.335 45.398,269.335 44.889 C 269.335 44.413,269.145 44.317,268.192 44.317 C 267.239 44.317,267.048 44.222,267.048 43.746 C 267.048 43.258,266.857 43.174,265.761 43.174 C 264.665 43.174,264.475 43.089,264.475 42.602 C 264.475 42.094,264.284 42.030,262.779 42.030 C 261.238 42.030,261.075 41.971,260.992 41.387 C 260.919 40.874,260.689 40.726,259.858 40.656 C 259.109 40.594,258.774 40.413,258.669 40.013 C 258.545 39.539,258.267 39.457,256.782 39.457 C 255.230 39.457,255.039 39.394,255.039 38.885 C 255.039 38.377,254.849 38.313,253.324 38.313 C 251.799 38.313,251.608 38.250,251.608 37.741 C 251.608 37.214,251.418 37.169,249.178 37.169 C 246.938 37.169,246.748 37.125,246.748 36.598 C 246.748 36.071,246.557 36.026,244.317 36.026 C 242.078 36.026,241.887 35.981,241.887 35.454 C 241.887 34.930,241.696 34.882,239.620 34.882 C 237.486 34.882,237.347 34.844,237.261 34.239 C 237.174 33.626,237.031 33.592,234.270 33.514 C 231.664 33.441,231.355 33.376,231.223 32.871 C 231.085 32.346,230.812 32.309,227.079 32.309 C 223.324 32.309,223.074 32.274,222.934 31.737 C 222.789 31.183,222.544 31.165,215.037 31.165 C 207.482 31.165,207.291 31.151,207.291 30.593 C 207.291 30.045,207.100 30.021,202.573 30.021 C 198.046 30.021,197.856 30.045,197.856 30.593 M217.298 189.135 L 217.298 259.900 195.997 259.900 L 174.696 259.900 174.696 210.579 L 174.696 161.258 156.683 161.258 L 138.670 161.258 138.670 140.005 C 138.670 128.315,138.756 118.666,138.861 118.561 C 138.966 118.456,156.657 118.370,178.175 118.370 L 217.298 118.370 217.298 189.135 M251.394 118.662 C 269.159 120.697,276.699 142.221,264.070 154.849 C 253.598 165.321,236.188 162.400,229.839 149.107 C 223.536 135.908,231.996 120.345,246.385 118.671 C 247.449 118.547,248.449 118.430,248.606 118.410 C 248.763 118.391,250.018 118.504,251.394 118.662 " stroke="none" fill="#046beb" fill-rule="evenodd"></path><path id="path2" d="M158.470 118.585 C 169.282 118.626,186.973 118.626,197.784 118.585 C 208.595 118.543,199.750 118.509,178.127 118.509 C 156.505 118.509,147.659 118.543,158.470 118.585 M248.535 118.567 C 248.810 118.639,249.260 118.639,249.535 118.567 C 249.811 118.495,249.585 118.437,249.035 118.437 C 248.485 118.437,248.259 118.495,248.535 118.567 M270.289 139.814 C 270.289 140.994,270.340 141.476,270.401 140.886 C 270.463 140.297,270.463 139.332,270.401 138.742 C 270.340 138.152,270.289 138.635,270.289 139.814 " stroke="none" fill="#4b96eb" fill-rule="evenodd"></path><path id="path3" d="M217.083 189.062 L 217.012 259.610 195.926 259.686 L 174.839 259.761 195.935 259.830 C 212.599 259.885,217.059 259.825,217.166 259.543 C 217.241 259.346,217.268 227.534,217.228 188.849 L 217.154 118.513 217.083 189.062 M263.746 155.039 L 262.616 156.254 263.831 155.124 C 264.500 154.503,265.046 153.956,265.046 153.909 C 265.046 153.693,264.797 153.909,263.746 155.039 M147.912 161.186 C 152.916 161.230,161.022 161.230,165.925 161.186 C 170.828 161.143,166.733 161.107,156.826 161.107 C 146.919 161.107,142.908 161.143,147.912 161.186 " stroke="none" fill="#84b4f3" fill-rule="evenodd"></path><path id="path4" d="M138.806 139.814 C 138.806 151.530,138.842 156.322,138.885 150.465 C 138.928 144.607,138.928 135.021,138.885 129.164 C 138.842 123.306,138.806 128.099,138.806 139.814 " stroke="none" fill="#7bb4f4" fill-rule="evenodd"></path></g></svg>
