<svg version="1.0" xmlns="http://www.w3.org/2000/svg"
 width="26" height="26" viewBox="0 0 1031 1031"
 preserveAspectRatio="xMidYMid meet">

<g transform="translate(0.000000,1105.000000) scale(0.100000,-0.100000)"
fill="#000000" stroke="none">
<path d="M5330 11030 c0 -6 -65 -10 -174 -10 -109 0 -176 -4 -178 -10 -2 -6
-47 -13 -101 -17 -53 -3 -97 -9 -97 -14 0 -4 -33 -10 -72 -13 -148 -11 -198
-18 -198 -27 0 -5 -27 -9 -60 -9 -33 0 -60 -4 -60 -10 0 -5 -23 -12 -50 -16
-28 -4 -53 -11 -56 -15 -3 -5 -25 -9 -50 -9 -24 0 -44 -4 -44 -10 0 -5 -20
-10 -45 -10 -25 0 -45 -4 -45 -10 0 -5 -18 -10 -41 -10 -23 0 -47 -7 -55 -15
-9 -8 -26 -15 -40 -15 -13 0 -24 -4 -24 -10 0 -5 -16 -10 -35 -10 -19 0 -35
-4 -35 -10 0 -5 -13 -10 -30 -10 -16 0 -30 -4 -30 -8 0 -8 -100 -42 -125 -42
-8 0 -15 -4 -15 -10 0 -5 -16 -10 -35 -10 -19 0 -35 -4 -35 -10 0 -5 -13 -10
-29 -10 -16 0 -31 -6 -35 -15 -3 -8 -15 -15 -26 -15 -11 0 -20 -4 -20 -10 0
-5 -13 -10 -30 -10 -16 0 -30 -4 -30 -10 0 -5 -11 -10 -25 -10 -14 0 -25 -4
-25 -10 0 -5 -9 -10 -21 -10 -11 0 -27 -7 -35 -15 -9 -8 -24 -15 -35 -15 -10
0 -19 -4 -19 -10 0 -5 -11 -10 -25 -10 -14 0 -25 -4 -25 -10 0 -5 -11 -10 -25
-10 -14 0 -25 -4 -25 -10 0 -5 -9 -10 -20 -10 -11 0 -20 -4 -20 -10 0 -5 -11
-12 -25 -16 -14 -3 -25 -10 -25 -15 0 -5 -9 -9 -20 -9 -11 0 -20 -4 -20 -10 0
-5 -11 -10 -25 -10 -14 0 -25 -4 -25 -10 0 -5 -9 -10 -20 -10 -11 0 -20 -3
-20 -7 0 -11 -58 -43 -76 -43 -8 0 -14 -4 -14 -10 0 -5 -7 -10 -15 -10 -8 0
-15 -4 -15 -10 0 -5 -9 -10 -20 -10 -11 0 -20 -7 -20 -15 0 -8 -9 -15 -20 -15
-11 0 -20 -4 -20 -10 0 -5 -11 -10 -25 -10 -14 0 -25 -4 -25 -10 0 -5 -5 -10
-11 -10 -6 0 -17 -6 -24 -12 -31 -28 -41 -35 -72 -48 -18 -8 -33 -18 -33 -22
0 -5 -9 -8 -20 -8 -11 0 -20 -5 -20 -11 0 -15 -31 -38 -50 -39 -9 0 -22 -9
-30 -20 -8 -11 -20 -20 -28 -20 -7 0 -23 -10 -35 -23 -12 -12 -34 -29 -49 -36
-16 -8 -28 -18 -28 -23 0 -4 -5 -8 -11 -8 -6 0 -17 -6 -24 -12 -32 -29 -45
-38 -52 -38 -5 0 -15 -9 -23 -20 -8 -11 -20 -20 -27 -20 -7 0 -35 -22 -63 -50
-28 -27 -56 -50 -61 -50 -6 0 -24 -13 -39 -30 -15 -16 -31 -30 -35 -30 -10 0
-35 -27 -35 -38 0 -6 -14 -16 -30 -24 -17 -7 -30 -16 -30 -20 0 -5 -7 -8 -15
-8 -8 0 -15 -5 -15 -10 0 -14 -66 -80 -80 -80 -5 0 -10 -5 -10 -11 0 -11 -24
-39 -34 -39 -8 0 -166 -158 -166 -166 0 -10 -28 -34 -39 -34 -6 0 -11 -5 -11
-10 0 -14 -66 -80 -80 -80 -5 0 -10 -7 -10 -15 0 -8 -4 -15 -9 -15 -5 0 -14
-13 -21 -30 -7 -16 -17 -30 -22 -30 -11 0 -38 -25 -38 -35 0 -4 -13 -20 -30
-35 -16 -15 -30 -33 -30 -38 0 -6 -17 -29 -38 -51 -52 -57 -62 -69 -62 -78 0
-5 -9 -15 -20 -23 -11 -8 -20 -18 -20 -23 0 -5 -6 -15 -13 -22 -29 -33 -37
-45 -37 -55 0 -5 -4 -10 -8 -10 -5 0 -15 -12 -23 -27 -7 -16 -24 -38 -36 -50
-13 -12 -23 -28 -23 -35 0 -8 -9 -20 -20 -28 -11 -8 -20 -21 -20 -30 -1 -19
-24 -50 -39 -50 -6 0 -11 -9 -11 -20 0 -11 -3 -20 -8 -20 -4 0 -14 -15 -21
-32 -8 -18 -20 -38 -25 -45 -30 -34 -36 -43 -36 -53 0 -5 -4 -10 -10 -10 -5 0
-10 -11 -10 -25 0 -14 -4 -25 -10 -25 -5 0 -10 -9 -10 -20 0 -11 -7 -20 -15
-20 -8 0 -15 -9 -15 -20 0 -11 -4 -20 -10 -20 -5 0 -10 -7 -10 -15 0 -8 -4
-15 -10 -15 -5 0 -10 -6 -10 -14 0 -18 -32 -76 -42 -76 -5 0 -8 -9 -8 -20 0
-11 -4 -20 -10 -20 -5 0 -10 -11 -10 -25 0 -14 -4 -25 -10 -25 -5 0 -10 -9
-10 -20 0 -11 -4 -20 -9 -20 -5 0 -12 -11 -15 -25 -4 -14 -11 -25 -16 -25 -6
0 -10 -11 -10 -25 0 -14 -4 -25 -10 -25 -5 0 -10 -9 -10 -20 0 -11 -4 -20 -10
-20 -5 0 -10 -11 -10 -25 0 -14 -4 -25 -10 -25 -5 0 -10 -9 -10 -19 0 -11 -7
-26 -15 -35 -8 -8 -15 -24 -15 -35 0 -12 -4 -21 -10 -21 -5 0 -10 -11 -10 -25
0 -14 -4 -25 -10 -25 -5 0 -10 -13 -10 -30 0 -16 -4 -30 -10 -30 -5 0 -10 -9
-10 -19 0 -11 -7 -26 -15 -35 -8 -8 -15 -26 -15 -40 0 -14 -4 -26 -10 -26 -5
0 -10 -13 -10 -30 0 -16 -4 -30 -10 -30 -5 0 -10 -7 -10 -15 0 -25 -34 -125
-42 -125 -4 0 -8 -16 -8 -35 0 -19 -4 -35 -10 -35 -5 0 -10 -13 -10 -29 0 -17
-4 -33 -10 -36 -5 -3 -10 -19 -10 -35 0 -16 -7 -35 -15 -44 -8 -8 -15 -28 -15
-45 0 -17 -4 -31 -10 -31 -5 0 -10 -20 -10 -44 0 -25 -4 -48 -10 -51 -5 -3
-10 -24 -10 -45 0 -21 -4 -41 -9 -44 -4 -3 -11 -29 -13 -58 -3 -29 -11 -54
-17 -56 -6 -2 -11 -27 -11 -58 0 -30 -4 -54 -10 -54 -6 0 -10 -28 -10 -65 0
-36 -4 -65 -9 -65 -5 0 -12 -33 -15 -72 -12 -169 -27 -293 -36 -296 -13 -5
-14 -989 -1 -994 8 -3 25 -143 38 -303 3 -33 9 -64 14 -69 5 -6 9 -36 9 -68 0
-32 4 -58 10 -58 6 0 10 -25 10 -55 0 -30 4 -55 9 -55 8 0 27 -84 38 -167 3
-24 9 -43 14 -43 5 0 9 -20 9 -45 0 -25 5 -45 10 -45 6 0 10 -18 10 -40 0 -22
5 -40 10 -40 6 0 10 -10 10 -23 0 -13 7 -32 15 -43 8 -10 15 -36 15 -56 0 -21
5 -38 10 -38 6 0 10 -16 10 -35 0 -19 4 -35 10 -35 5 0 12 -16 16 -35 3 -19
10 -35 15 -35 5 0 9 -11 9 -24 0 -14 4 -28 10 -31 5 -3 10 -17 10 -31 0 -13 5
-24 10 -24 6 0 10 -14 10 -31 0 -17 6 -37 14 -44 7 -8 20 -34 27 -59 7 -26 17
-46 21 -46 4 0 8 -11 8 -25 0 -14 5 -25 10 -25 6 0 10 -13 10 -29 0 -16 3 -31
8 -33 10 -4 42 -67 42 -84 0 -8 5 -14 10 -14 6 0 10 -9 10 -20 0 -11 5 -20 10
-20 6 0 10 -11 10 -24 0 -13 4 -26 9 -28 9 -3 61 -112 61 -128 0 -6 5 -10 10
-10 6 0 10 -9 10 -20 0 -11 4 -20 9 -20 5 0 17 -20 28 -45 10 -25 21 -45 26
-45 4 0 7 -9 7 -20 0 -11 5 -20 10 -20 6 0 10 -11 10 -25 0 -14 5 -25 11 -25
16 0 38 -31 39 -52 0 -10 5 -18 10 -18 6 0 10 -7 10 -15 0 -9 11 -28 25 -43
14 -15 25 -32 25 -39 0 -7 5 -13 10 -13 6 0 10 -9 10 -20 0 -11 5 -20 10 -20
6 0 10 -5 10 -10 0 -11 10 -25 48 -65 12 -13 22 -31 22 -40 0 -8 13 -29 30
-46 16 -17 32 -40 35 -50 4 -11 11 -19 16 -19 5 0 9 -7 9 -15 0 -8 5 -15 10
-15 6 0 10 -9 10 -20 0 -11 5 -20 11 -20 14 0 39 -25 39 -39 0 -6 5 -11 10
-11 6 0 10 -7 10 -15 0 -9 18 -33 40 -55 22 -22 40 -43 40 -48 0 -5 22 -32 50
-60 27 -28 50 -55 50 -60 0 -6 7 -12 15 -16 8 -3 15 -10 15 -17 0 -6 14 -24
30 -39 17 -15 30 -31 30 -35 0 -10 27 -35 39 -35 6 0 11 -4 11 -8 0 -5 20 -31
45 -58 24 -27 54 -59 65 -71 11 -12 20 -27 20 -33 0 -5 5 -10 10 -10 14 0 80
-66 80 -80 0 -5 7 -10 15 -10 8 0 27 -12 43 -27 16 -16 46 -41 66 -58 19 -16
36 -34 36 -38 0 -10 26 -37 35 -37 3 0 21 -15 40 -33 44 -42 63 -57 70 -57 3
0 16 -10 29 -22 38 -38 76 -68 84 -68 4 0 14 -9 22 -20 8 -11 18 -20 23 -20 5
0 15 -6 22 -12 30 -27 44 -38 50 -38 3 0 17 -11 31 -25 14 -14 29 -25 33 -25
4 0 22 -14 39 -30 18 -17 39 -30 47 -30 8 0 15 -4 15 -10 0 -5 5 -10 11 -10 6
0 17 -6 24 -12 33 -30 45 -38 55 -38 5 0 10 -3 10 -8 0 -4 14 -13 30 -20 17
-8 30 -20 30 -28 0 -8 10 -14 25 -14 14 0 25 -3 25 -7 0 -5 25 -21 55 -38 30
-16 55 -33 55 -37 0 -4 9 -8 20 -8 11 0 20 -4 20 -10 0 -5 7 -10 15 -10 8 0
15 -4 15 -10 0 -5 9 -10 20 -10 11 0 20 -4 20 -10 0 -5 11 -12 25 -16 14 -3
25 -10 25 -15 0 -5 9 -9 20 -9 11 0 20 -4 20 -10 0 -5 7 -10 15 -10 8 0 15 -4
15 -10 0 -5 9 -10 20 -10 11 0 20 -4 20 -10 0 -5 9 -10 20 -10 11 0 23 -7 26
-15 4 -8 15 -15 25 -15 10 0 19 -4 19 -10 0 -5 11 -10 25 -10 14 0 25 -4 25
-10 0 -5 9 -10 20 -10 11 0 20 -4 20 -9 0 -5 16 -12 35 -15 19 -4 35 -11 35
-16 0 -6 9 -10 20 -10 11 0 20 -4 20 -10 0 -5 11 -10 25 -10 14 0 25 -4 25
-10 0 -5 9 -10 20 -10 11 0 23 -7 26 -15 4 -9 19 -15 35 -15 16 0 29 -4 29
-10 0 -5 11 -10 25 -10 14 0 25 -4 25 -8 0 -4 20 -14 46 -21 25 -7 51 -20 59
-27 7 -8 27 -14 44 -14 17 0 31 -4 31 -10 0 -5 16 -10 35 -10 19 0 35 -4 35
-10 0 -5 11 -10 24 -10 14 0 28 -4 31 -10 3 -5 17 -10 30 -10 13 0 30 -7 39
-15 8 -8 28 -15 45 -15 17 0 31 -4 31 -10 0 -5 16 -10 35 -10 19 0 35 -4 35
-10 0 -5 17 -10 38 -10 21 0 42 -4 47 -9 6 -5 28 -12 50 -15 22 -4 42 -11 43
-16 2 -6 24 -10 48 -10 24 0 44 -4 44 -10 0 -5 20 -10 45 -10 25 0 45 -4 45
-10 0 -5 24 -10 54 -10 30 0 57 -4 60 -9 3 -4 34 -11 68 -14 34 -3 64 -10 66
-16 2 -7 32 -11 73 -11 39 0 69 -4 69 -10 0 -6 37 -10 90 -10 50 0 90 -4 90
-9 0 -13 180 -21 604 -27 232 -3 353 -1 360 6 6 6 61 10 127 10 68 0 120 4
124 10 3 5 46 10 96 10 53 0 89 4 89 10 0 6 28 10 65 10 36 0 65 4 65 9 0 5
32 12 70 16 39 4 70 11 70 16 0 5 25 9 55 9 30 0 55 5 55 10 0 6 23 10 50 10
28 0 50 5 50 10 0 6 23 10 50 10 28 0 50 5 50 10 0 6 10 10 23 10 12 1 33 7
47 15 14 8 40 14 58 15 17 0 32 5 32 10 0 6 16 10 35 10 19 0 35 5 35 10 0 6
16 10 35 10 19 0 35 5 35 10 0 6 14 10 31 10 17 0 37 7 45 15 9 8 26 15 39 15
13 0 27 5 30 10 3 6 17 10 31 10 13 0 24 5 24 10 0 6 16 10 35 10 19 0 35 5
35 10 0 6 7 10 16 10 9 0 30 7 47 16 60 32 67 34 92 34 14 0 25 5 25 10 0 6
11 10 25 10 14 0 25 3 25 8 0 12 60 42 86 42 13 0 24 5 24 10 0 6 9 10 20 10
11 0 20 5 20 10 0 6 11 10 25 10 14 0 25 3 25 8 0 10 58 42 76 42 8 0 14 5 14
10 0 6 9 10 20 10 11 0 20 5 20 10 0 6 11 10 25 10 16 0 25 6 25 15 0 8 9 15
19 15 11 0 23 5 26 10 3 6 15 10 26 10 10 0 19 5 19 10 0 6 7 10 15 10 8 0 15
5 15 10 0 6 9 10 20 10 11 0 20 4 20 10 0 5 11 12 25 16 14 3 25 10 25 15 0 5
9 9 20 9 11 0 20 5 20 10 0 6 7 10 15 10 8 0 15 3 15 8 0 4 18 16 40 26 22 11
40 23 40 28 0 4 7 8 15 8 8 0 15 5 15 10 0 6 9 10 20 10 11 0 20 4 20 8 0 5
16 17 35 28 19 10 35 22 35 26 0 5 7 8 15 8 8 0 15 5 15 10 0 6 7 10 15 10 9
0 18 6 21 14 3 8 19 20 35 26 16 7 29 16 29 21 0 5 5 9 11 9 6 0 16 6 24 13 7
6 25 21 41 32 15 11 33 26 40 32 7 7 18 13 24 13 6 0 30 20 54 45 25 25 51 45
60 45 9 0 16 4 16 8 0 5 11 15 25 22 14 7 25 19 25 27 0 7 7 13 15 13 8 0 15
5 15 10 0 6 7 10 16 10 18 0 44 23 44 39 0 6 4 11 9 11 5 0 34 25 65 55 30 30
62 55 71 55 8 0 15 5 15 10 0 11 45 60 54 60 7 0 146 139 146 146 0 8 27 34
35 34 8 0 35 27 35 35 0 7 24 34 103 115 31 32 57 62 57 65 0 5 11 18 68 80
12 13 22 27 22 30 0 3 16 22 35 42 19 20 35 41 35 46 0 4 10 18 23 31 12 12
33 39 47 59 14 20 28 37 33 37 4 0 7 7 7 15 0 8 5 15 10 15 6 0 10 6 10 14 0
7 11 22 25 32 14 10 25 27 25 36 0 10 5 18 10 18 6 0 10 7 10 15 0 8 3 15 8
15 4 0 16 16 26 35 11 19 23 35 28 35 4 0 8 9 8 20 0 11 4 20 8 20 4 0 16 15
27 33 10 17 27 39 37 48 10 9 18 26 18 38 0 11 4 21 8 21 4 0 21 25 37 55 17
30 33 55 38 55 4 0 7 9 7 20 0 11 4 20 9 20 5 0 12 11 15 25 4 14 10 25 15 25
5 0 15 16 21 35 6 19 16 35 21 35 5 0 9 11 9 25 0 14 5 25 10 25 6 0 10 9 10
20 0 11 4 20 8 20 4 0 16 20 26 45 11 25 23 45 28 45 4 0 8 11 8 25 0 14 5 25
10 25 6 0 10 9 10 20 0 11 5 20 10 20 6 0 10 9 10 20 0 11 7 23 15 26 9 4 15
19 15 35 0 16 5 29 10 29 6 0 10 6 10 13 0 6 11 35 25 62 13 28 25 58 25 68 0
9 5 17 10 17 6 0 10 11 10 25 0 14 5 25 10 25 6 0 10 14 10 30 0 17 5 30 10
30 6 0 10 7 10 16 0 22 33 118 43 122 4 2 7 17 7 33 0 16 5 29 10 29 6 0 10
11 10 25 0 14 4 33 9 43 5 9 14 35 20 57 6 22 13 50 16 63 4 12 11 22 16 22 5
0 9 20 9 45 0 25 4 45 9 45 5 0 11 17 14 37 3 21 10 58 16 83 6 25 15 70 20
100 6 30 15 56 21 58 5 2 10 28 10 58 0 30 5 54 10 54 6 0 10 28 10 63 0 35 4
67 9 73 5 5 12 38 15 74 13 160 27 265 36 268 6 2 10 82 10 213 0 133 4 209
10 209 6 0 10 40 10 100 0 60 -4 100 -10 100 -6 0 -10 81 -10 224 0 138 -4
226 -10 228 -5 2 -14 50 -20 108 -5 58 -15 139 -20 180 -6 41 -13 101 -16 133
-3 31 -10 57 -15 57 -5 0 -9 27 -9 60 0 33 -4 60 -10 60 -5 0 -12 23 -16 50
-4 28 -11 53 -15 56 -5 3 -9 25 -9 50 0 24 -4 44 -10 44 -5 0 -10 20 -10 45 0
25 -4 45 -10 45 -5 0 -10 18 -10 41 0 23 -7 47 -15 55 -8 9 -15 26 -15 40 0
13 -4 24 -10 24 -5 0 -10 16 -10 35 0 19 -4 35 -10 35 -5 0 -10 14 -10 30 0
17 -4 30 -10 30 -5 0 -10 15 -10 34 0 19 -5 36 -11 38 -9 3 -24 46 -36 111 -3
15 -9 27 -14 27 -5 0 -9 14 -9 30 0 17 -4 30 -10 30 -5 0 -10 9 -10 21 0 11
-7 27 -15 35 -8 9 -15 24 -15 34 0 10 -4 22 -10 25 -5 3 -10 15 -10 26 0 10
-4 19 -10 19 -5 0 -10 11 -10 25 0 14 -4 25 -10 25 -5 0 -10 14 -10 30 0 20
-5 30 -15 30 -9 0 -15 9 -15 25 0 14 -4 25 -10 25 -5 0 -10 11 -10 25 0 14 -4
25 -10 25 -5 0 -10 9 -10 20 0 11 -4 20 -10 20 -5 0 -12 11 -16 25 -3 14 -10
25 -15 25 -5 0 -9 9 -9 20 0 11 -4 20 -10 20 -5 0 -10 11 -10 25 0 14 -4 25
-10 25 -5 0 -10 9 -10 20 0 11 -3 20 -7 20 -11 0 -43 58 -43 76 0 8 -4 14 -10
14 -5 0 -10 7 -10 15 0 8 -4 15 -10 15 -5 0 -10 7 -10 16 0 8 -6 22 -12 29
-32 36 -38 46 -38 65 0 11 -4 20 -10 20 -5 0 -10 7 -10 15 0 8 -4 15 -10 15
-5 0 -10 9 -10 20 0 11 -7 20 -15 20 -8 0 -15 9 -15 20 0 11 -4 20 -10 20 -5
0 -10 7 -10 15 0 8 -4 15 -10 15 -5 0 -10 7 -10 15 0 9 -11 27 -25 41 -14 14
-25 30 -25 37 0 7 -9 19 -20 27 -11 8 -20 20 -20 28 0 7 -10 23 -23 35 -12 12
-29 34 -36 50 -8 15 -18 27 -23 27 -4 0 -8 5 -8 11 0 6 -6 17 -12 24 -29 32
-38 45 -38 52 0 5 -9 15 -20 23 -11 8 -20 20 -20 27 0 7 -20 33 -45 57 -25 25
-45 54 -45 65 0 12 -5 21 -10 21 -11 0 -60 45 -60 55 0 3 -10 16 -22 29 -34
35 -68 75 -68 82 0 7 -27 34 -35 34 -10 0 -55 48 -55 60 0 5 -5 10 -11 10 -11
0 -39 24 -39 34 0 7 -228 236 -236 236 -7 0 -54 48 -54 55 0 11 -28 35 -41 35
-6 0 -26 16 -45 35 -18 19 -36 35 -39 35 -4 0 -19 13 -33 28 -15 16 -35 31
-44 35 -10 3 -18 11 -18 17 0 5 -5 10 -11 10 -6 0 -26 16 -45 35 -18 19 -39
35 -47 35 -7 0 -19 9 -27 20 -8 11 -18 20 -23 20 -8 0 -21 10 -60 45 -12 11
-35 27 -52 35 -36 18 -55 35 -55 49 0 6 -10 11 -23 11 -12 0 -29 9 -37 20 -8
11 -21 20 -30 20 -19 1 -50 24 -50 39 0 6 -9 11 -20 11 -11 0 -20 3 -20 8 0 4
-15 14 -32 21 -18 8 -38 20 -45 25 -34 30 -43 36 -53 36 -5 0 -10 5 -10 10 0
6 -9 10 -20 10 -11 0 -20 5 -20 10 0 6 -9 10 -20 10 -11 0 -23 7 -26 15 -4 8
-15 15 -25 15 -10 0 -19 5 -19 10 0 6 -7 10 -15 10 -8 0 -15 5 -15 10 0 6 -9
10 -20 10 -11 0 -20 4 -20 9 0 5 -11 12 -25 15 -14 4 -25 11 -25 16 0 6 -9 10
-20 10 -11 0 -20 5 -20 10 0 6 -11 10 -25 10 -14 0 -25 5 -25 10 0 6 -9 10
-20 10 -11 0 -20 4 -20 9 0 5 -11 12 -25 15 -14 4 -25 11 -25 16 0 6 -9 10
-20 10 -11 0 -20 5 -20 10 0 6 -11 10 -25 10 -14 0 -25 5 -25 10 0 6 -9 10
-19 10 -11 0 -23 5 -26 10 -3 6 -15 10 -25 10 -10 0 -25 7 -34 15 -8 8 -24 15
-35 15 -12 0 -21 5 -21 10 0 6 -9 10 -20 10 -11 0 -20 5 -20 10 0 6 -16 10
-35 10 -19 0 -35 5 -35 10 0 6 -9 10 -20 10 -11 0 -23 7 -26 15 -4 9 -19 15
-35 15 -16 0 -29 5 -29 10 0 6 -16 10 -35 10 -19 0 -35 5 -35 10 0 6 -7 10
-16 10 -26 0 -114 32 -114 41 0 5 -16 9 -35 9 -19 0 -35 5 -35 10 0 6 -16 10
-35 10 -19 0 -35 5 -35 10 0 6 -11 10 -24 10 -14 0 -31 7 -40 15 -8 8 -32 15
-55 15 -23 0 -41 5 -41 10 0 6 -20 10 -45 10 -25 0 -45 5 -45 10 0 6 -20 10
-45 10 -25 0 -45 4 -45 9 0 4 -24 11 -52 14 -29 4 -54 11 -56 17 -2 5 -30 10
-63 10 -32 0 -59 4 -59 9 0 9 -33 13 -182 26 -35 3 -72 10 -83 15 -11 4 -60
11 -110 14 -49 4 -91 11 -93 16 -2 6 -72 10 -173 10 -106 0 -169 4 -169 10 0
6 -73 10 -200 10 -127 0 -200 -4 -200 -10z m659 -1080 c80 -14 207 -31 269
-37 28 -3 52 -9 52 -14 0 -5 27 -9 60 -9 33 0 60 -4 60 -9 0 -5 17 -11 38 -14
20 -3 64 -12 97 -22 33 -9 77 -19 98 -22 20 -3 37 -9 37 -14 0 -5 16 -9 35 -9
19 0 35 -4 35 -10 0 -5 10 -10 23 -10 12 -1 33 -7 47 -15 14 -8 35 -14 48 -15
12 0 22 -4 22 -10 0 -5 14 -10 30 -10 17 0 30 -4 30 -10 0 -5 16 -10 35 -10
19 0 35 -4 35 -10 0 -5 8 -10 18 -10 10 0 27 -7 38 -15 10 -8 29 -15 42 -15
12 0 22 -4 22 -10 0 -5 9 -10 20 -10 11 0 20 -4 20 -10 0 -5 8 -10 18 -10 10
0 42 -11 70 -25 29 -14 56 -25 62 -25 5 0 10 -4 10 -10 0 -5 11 -10 25 -10 14
0 25 -4 25 -10 0 -5 9 -10 20 -10 11 0 20 -4 20 -8 0 -5 20 -17 45 -28 25 -10
45 -22 45 -26 0 -4 9 -8 20 -8 11 0 20 -4 20 -10 0 -5 11 -10 25 -10 14 0 25
-3 25 -8 0 -4 16 -16 35 -26 19 -11 35 -23 35 -28 0 -4 9 -8 20 -8 11 0 20 -4
20 -10 0 -5 6 -10 13 -10 7 0 24 -11 39 -25 15 -14 34 -25 43 -25 8 0 15 -4
15 -10 0 -5 7 -10 15 -10 8 0 15 -3 15 -8 0 -4 16 -16 35 -26 19 -11 35 -23
35 -28 0 -4 9 -8 20 -8 11 0 20 -3 20 -7 0 -5 21 -21 45 -38 25 -16 45 -33 45
-37 0 -5 7 -8 15 -8 8 0 15 -4 15 -10 0 -5 7 -10 16 -10 8 0 30 -16 48 -35 19
-19 39 -35 46 -35 6 0 36 -25 65 -55 30 -30 58 -55 63 -55 5 0 67 -56 136
-125 70 -69 130 -125 132 -125 7 0 34 -27 34 -34 0 -3 30 -37 68 -74 37 -38
76 -82 87 -97 11 -15 35 -44 53 -63 17 -20 32 -39 32 -43 0 -5 11 -19 25 -33
14 -14 25 -28 25 -31 0 -3 10 -17 23 -30 35 -38 47 -54 47 -62 0 -5 9 -15 20
-23 11 -8 20 -19 20 -25 0 -6 11 -22 25 -37 14 -15 25 -34 25 -43 0 -8 4 -15
8 -15 5 0 17 -16 28 -35 10 -19 22 -35 26 -35 5 0 8 -7 8 -15 0 -8 5 -15 10
-15 6 0 10 -7 10 -15 0 -15 6 -25 38 -60 6 -7 12 -18 12 -24 0 -6 5 -11 10
-11 6 0 10 -9 10 -20 0 -11 5 -20 10 -20 6 0 10 -9 10 -20 0 -11 5 -20 10 -20
6 0 10 -7 10 -15 0 -8 4 -15 8 -15 5 0 17 -20 28 -45 10 -25 22 -45 26 -45 4
0 8 -11 8 -25 0 -14 5 -25 10 -25 6 0 10 -9 10 -20 0 -11 4 -20 10 -20 5 0 12
-11 16 -25 3 -14 10 -25 15 -25 5 0 9 -9 9 -20 0 -11 5 -20 10 -20 6 0 10 -11
10 -25 0 -14 5 -25 10 -25 6 0 10 -7 10 -15 0 -18 32 -89 43 -93 4 -2 7 -17 7
-33 0 -16 5 -29 10 -29 6 0 10 -11 10 -25 0 -14 5 -25 10 -25 6 0 10 -11 10
-24 0 -14 7 -31 15 -40 8 -8 15 -26 15 -40 0 -14 5 -26 10 -26 6 0 10 -13 10
-30 0 -16 5 -30 10 -30 6 0 10 -12 10 -27 1 -16 7 -39 15 -53 8 -14 14 -35 15
-47 0 -13 5 -23 10 -23 6 0 10 -16 10 -35 0 -19 5 -35 10 -35 6 0 10 -20 10
-45 0 -25 4 -45 9 -45 5 0 11 -17 14 -37 6 -44 24 -124 38 -169 5 -17 9 -54 9
-82 0 -29 5 -52 10 -52 6 0 10 -30 10 -70 0 -40 4 -70 10 -70 6 0 10 -26 10
-57 0 -32 7 -107 15 -168 17 -126 20 -532 5 -660 -6 -44 -13 -122 -16 -172 -4
-51 -11 -93 -15 -93 -5 0 -9 -31 -9 -70 0 -40 -4 -70 -10 -70 -5 0 -10 -21
-10 -47 0 -26 -4 -60 -9 -77 -14 -45 -32 -125 -38 -168 -3 -21 -9 -38 -14 -38
-5 0 -9 -20 -9 -45 0 -25 -4 -45 -10 -45 -5 0 -10 -16 -10 -35 0 -19 -4 -35
-10 -35 -5 0 -10 -15 -10 -32 -1 -18 -7 -44 -15 -58 -8 -14 -14 -35 -15 -47 0
-13 -4 -23 -10 -23 -5 0 -10 -13 -10 -30 0 -16 -4 -30 -10 -30 -5 0 -10 -10
-10 -22 0 -13 -7 -32 -15 -42 -8 -11 -15 -28 -15 -38 0 -10 -4 -18 -10 -18 -5
0 -10 -13 -10 -30 0 -16 -4 -30 -10 -30 -5 0 -10 -11 -10 -25 0 -14 -4 -25
-10 -25 -5 0 -10 -8 -10 -17 0 -10 -7 -27 -15 -37 -8 -11 -15 -28 -15 -38 0
-10 -4 -18 -10 -18 -5 0 -10 -11 -10 -25 0 -14 -4 -25 -10 -25 -5 0 -10 -11
-10 -25 0 -14 -4 -25 -10 -25 -5 0 -10 -9 -10 -20 0 -11 -4 -20 -10 -20 -5 0
-12 -11 -16 -25 -3 -14 -10 -25 -15 -25 -5 0 -9 -9 -9 -20 0 -11 -4 -20 -10
-20 -5 0 -10 -7 -10 -15 0 -17 -48 -98 -61 -103 -5 -2 -9 -12 -9 -23 0 -10 -4
-19 -10 -19 -5 0 -10 -6 -10 -14 0 -18 -32 -76 -42 -76 -5 0 -8 -7 -8 -15 0
-8 -4 -15 -10 -15 -5 0 -10 -9 -10 -20 0 -11 -4 -20 -8 -20 -4 0 -16 -15 -27
-32 -10 -18 -27 -40 -37 -49 -10 -9 -18 -24 -18 -33 0 -9 -4 -16 -10 -16 -5 0
-10 -5 -10 -10 0 -10 -8 -22 -37 -55 -7 -7 -13 -16 -13 -20 0 -3 -10 -17 -22
-30 -34 -36 -48 -53 -48 -60 0 -3 -11 -17 -25 -31 -14 -14 -25 -29 -25 -33 0
-4 -13 -22 -30 -39 -16 -18 -30 -34 -30 -37 0 -5 -11 -18 -67 -80 -13 -13 -23
-27 -23 -30 0 -10 -49 -55 -60 -55 -5 0 -10 -5 -10 -10 0 -14 -156 -170 -170
-170 -5 0 -10 -5 -10 -10 0 -12 -45 -60 -55 -60 -8 0 -35 -27 -35 -35 0 -8
-27 -35 -35 -35 -5 0 -18 -10 -80 -68 -13 -12 -27 -22 -30 -22 -3 0 -16 -10
-29 -23 -13 -12 -36 -31 -51 -42 -16 -11 -34 -26 -41 -33 -7 -6 -15 -12 -19
-12 -7 0 -24 -14 -60 -47 -13 -13 -31 -23 -40 -23 -8 0 -15 -4 -15 -10 0 -5
-7 -10 -15 -10 -8 0 -15 -3 -15 -7 0 -5 -20 -21 -45 -38 -24 -16 -45 -33 -45
-37 0 -5 -9 -8 -20 -8 -11 0 -20 -4 -20 -10 0 -5 -5 -10 -10 -10 -10 0 -22 -8
-55 -37 -7 -7 -21 -13 -29 -13 -9 0 -16 -4 -16 -10 0 -5 -7 -10 -15 -10 -8 0
-15 -3 -15 -7 0 -11 -58 -43 -76 -43 -8 0 -14 -4 -14 -10 0 -5 -9 -10 -20 -10
-11 0 -20 -4 -20 -10 0 -5 -6 -10 -14 -10 -8 0 -21 -6 -28 -13 -7 -7 -28 -20
-45 -28 -18 -7 -33 -17 -33 -21 0 -5 -11 -8 -25 -8 -14 0 -25 -4 -25 -10 0 -5
-9 -10 -19 -10 -11 0 -26 -7 -35 -15 -8 -8 -21 -15 -30 -15 -8 0 -18 -4 -21
-10 -3 -5 -15 -10 -26 -10 -10 0 -19 -4 -19 -10 0 -5 -11 -10 -25 -10 -14 0
-25 -4 -25 -10 0 -5 -8 -10 -18 -10 -10 0 -27 -7 -38 -15 -10 -8 -27 -15 -36
-15 -10 0 -18 -4 -18 -10 0 -5 -16 -10 -35 -10 -19 0 -35 -4 -35 -10 0 -5 -11
-10 -25 -10 -14 0 -25 -3 -25 -8 0 -8 -59 -30 -102 -39 -16 -3 -28 -9 -28 -14
0 -5 -16 -9 -35 -9 -19 0 -35 -4 -35 -10 0 -5 -18 -10 -40 -10 -22 0 -40 -3
-40 -8 0 -8 -75 -30 -132 -39 -21 -3 -38 -9 -38 -14 0 -5 -25 -9 -55 -9 -30 0
-55 -4 -55 -10 0 -5 -12 -10 -28 -10 -15 0 -43 -5 -62 -11 -48 -16 -139 -29
-232 -35 -43 -3 -78 -10 -78 -15 0 -5 -207 -9 -515 -9 -308 0 -515 4 -515 9 0
5 -35 12 -77 15 -43 2 -105 9 -138 15 -162 28 -195 35 -195 43 0 4 -22 8 -50
8 -27 0 -50 5 -50 10 0 6 -15 10 -34 10 -18 0 -47 7 -62 15 -16 8 -39 15 -51
15 -13 0 -23 5 -23 10 0 6 -18 10 -40 10 -22 0 -40 5 -40 10 0 6 -16 10 -35
10 -19 0 -35 5 -35 10 0 6 -10 10 -22 10 -13 1 -34 7 -48 15 -14 8 -35 14 -47
15 -13 0 -23 5 -23 10 0 6 -11 10 -25 10 -14 0 -25 5 -25 10 0 6 -13 10 -30
10 -16 0 -30 5 -30 10 0 6 -9 10 -21 10 -11 0 -27 7 -35 15 -9 8 -24 15 -35
15 -10 0 -19 5 -19 10 0 6 -11 10 -25 10 -14 0 -25 5 -25 10 0 6 -7 10 -15 10
-8 0 -23 4 -33 9 -9 5 -36 17 -59 27 -24 11 -43 22 -43 27 0 4 -11 7 -25 7
-14 0 -25 3 -25 8 0 4 -15 14 -32 21 -18 8 -39 21 -46 28 -7 7 -20 13 -28 13
-8 0 -14 5 -14 10 0 6 -9 10 -20 10 -11 0 -20 5 -20 10 0 6 -6 10 -14 10 -18
0 -76 32 -76 43 0 4 -7 7 -15 7 -8 0 -15 5 -15 10 0 6 -9 10 -20 10 -11 0 -20
3 -20 8 0 4 -16 16 -35 26 -19 11 -35 23 -35 28 0 4 -9 8 -20 8 -11 0 -20 5
-20 10 0 6 -5 10 -10 10 -11 0 -25 10 -65 48 -13 12 -31 22 -40 22 -8 0 -15 5
-15 10 0 6 -5 10 -11 10 -6 0 -16 6 -23 13 -34 32 -67 57 -76 57 -6 0 -10 4
-10 8 0 4 -12 15 -28 24 -15 9 -42 30 -60 47 -17 17 -34 31 -37 31 -3 0 -17
10 -30 23 -35 32 -53 47 -60 47 -10 0 -325 319 -325 330 0 5 -5 10 -10 10 -12
0 -60 45 -60 55 0 4 -16 22 -35 41 -19 18 -35 36 -35 39 0 3 -16 21 -35 39
-19 19 -35 39 -35 45 0 6 -4 11 -10 11 -5 0 -10 7 -10 15 0 8 -16 29 -35 48
-19 19 -35 39 -35 46 0 6 -14 25 -30 43 -17 17 -30 35 -30 39 0 4 -11 19 -25
33 -14 14 -25 32 -25 41 0 9 -10 27 -22 40 -38 40 -48 54 -48 65 0 5 -4 10
-10 10 -5 0 -10 9 -10 19 0 11 -4 21 -9 23 -13 5 -61 86 -61 103 0 8 -4 15
-10 15 -5 0 -10 7 -10 15 0 8 -4 15 -10 15 -5 0 -10 7 -10 15 0 9 -7 18 -15
21 -8 4 -15 15 -15 25 0 10 -4 19 -10 19 -5 0 -10 11 -10 25 0 14 -3 25 -7 25
-11 0 -43 58 -43 76 0 8 -4 14 -10 14 -5 0 -10 9 -10 20 0 11 -4 20 -10 20 -5
0 -10 11 -10 25 0 14 -4 25 -10 25 -5 0 -10 7 -10 16 0 8 -7 22 -15 30 -8 9
-15 26 -15 40 0 13 -4 24 -10 24 -5 0 -10 11 -10 25 0 14 -4 25 -10 25 -5 0
-10 9 -10 20 0 11 -4 20 -10 20 -5 0 -10 9 -10 20 0 11 -11 43 -25 72 -14 28
-25 60 -25 70 0 10 -4 18 -10 18 -5 0 -10 16 -10 35 0 19 -4 35 -10 35 -5 0
-10 10 -10 23 -1 12 -7 33 -15 47 -8 14 -14 40 -15 58 0 17 -4 32 -10 32 -5 0
-10 16 -10 35 0 19 -4 35 -10 35 -5 0 -10 20 -10 45 0 25 -4 45 -10 45 -5 0
-10 10 -10 23 0 12 -7 44 -15 71 -8 27 -15 62 -15 78 0 15 -4 28 -10 28 -6 0
-10 27 -10 60 0 33 -4 60 -10 60 -5 0 -10 19 -10 43 0 23 -5 60 -11 82 -23 93
-32 269 -32 605 0 338 10 517 33 598 5 20 10 58 10 85 0 26 5 47 10 47 6 0 10
19 10 42 0 23 4 55 9 72 14 45 32 125 38 169 3 20 9 37 14 37 5 0 9 20 9 45 0
25 5 45 10 45 6 0 10 16 10 35 0 19 4 35 9 35 4 0 11 19 14 42 3 24 11 44 16
46 6 2 11 17 11 33 0 16 5 29 10 29 6 0 10 16 10 35 0 19 5 35 10 35 6 0 10
11 10 25 0 14 4 25 9 25 5 0 11 12 14 28 9 43 31 102 39 102 5 0 8 11 8 25 0
14 5 25 10 25 6 0 10 11 10 25 0 14 5 25 10 25 6 0 10 8 10 18 0 10 7 27 15
38 8 10 15 27 15 37 0 9 5 17 10 17 6 0 10 11 10 25 0 14 5 25 10 25 6 0 10 9
10 20 0 11 4 20 8 20 5 0 17 20 28 45 10 25 22 45 26 45 4 0 8 9 8 20 0 11 4
20 9 20 5 0 12 11 15 25 4 14 11 25 16 25 6 0 10 7 10 15 0 8 5 15 10 15 6 0
10 9 10 20 0 11 5 20 10 20 6 0 10 9 10 20 0 11 5 20 10 20 6 0 10 7 10 15 0
8 11 25 25 39 14 14 25 33 25 43 0 10 9 25 20 33 11 8 20 19 20 25 0 6 11 22
25 37 14 15 25 34 25 43 0 8 5 15 10 15 6 0 10 5 10 10 0 11 10 25 48 65 12
13 22 29 22 35 0 5 4 10 9 10 5 0 12 9 16 20 3 11 19 33 36 49 16 16 29 35 29
41 0 7 20 31 45 56 25 24 45 46 45 49 0 8 41 55 112 127 38 38 68 71 68 74 0
9 49 54 60 54 5 0 10 5 10 10 0 12 45 60 56 60 9 0 74 72 74 82 0 4 5 8 10 8
6 0 21 10 34 23 34 33 75 67 81 67 3 0 25 20 49 45 25 25 50 45 56 45 7 0 27
16 46 35 18 19 40 35 48 35 9 0 16 5 16 10 0 6 5 10 10 10 6 0 22 10 35 23 40
37 54 47 65 47 5 0 10 5 10 10 0 6 7 10 15 10 9 0 27 11 41 25 14 14 30 25 37
25 7 0 19 9 27 20 8 11 23 20 33 20 10 0 29 11 43 25 14 14 31 25 39 25 8 0
15 5 15 10 0 6 9 10 20 10 11 0 20 4 20 8 0 5 16 17 35 28 19 10 35 22 35 26
0 5 9 8 20 8 11 0 20 5 20 10 0 6 11 10 25 10 14 0 25 3 25 8 0 10 58 42 76
42 8 0 14 5 14 10 0 6 9 10 20 10 11 0 20 5 20 10 0 6 11 10 25 10 14 0 25 3
25 8 0 4 32 21 70 37 38 17 70 33 70 38 0 4 14 7 30 7 17 0 30 5 30 10 0 6 11
10 25 10 14 0 25 4 25 10 0 5 16 12 35 16 19 3 35 10 35 15 0 5 14 9 30 9 17
0 30 5 30 10 0 6 16 10 35 10 19 0 35 5 35 10 0 6 10 10 23 10 12 1 33 7 47
15 14 8 35 14 48 15 12 0 22 5 22 10 0 6 16 10 35 10 19 0 35 5 35 10 0 6 14
10 31 10 17 0 40 5 52 12 22 11 75 24 150 35 20 3 37 9 37 14 0 5 27 9 60 9
33 0 60 4 60 9 0 5 24 11 53 14 71 7 213 26 262 36 58 12 888 13 954 1z"/>
<path d="M2586 6565 c-3 -374 -9 -888 -12 -1142 l-6 -463 301 0 c207 0 301 3
301 11 0 14 25 39 39 39 6 0 11 9 11 20 0 11 5 20 10 20 6 0 10 5 10 10 0 6
10 22 23 35 59 65 67 75 67 85 0 5 4 10 9 10 5 0 14 13 21 29 6 16 23 38 36
48 13 10 24 26 24 35 0 10 4 18 8 18 5 0 15 11 22 25 7 14 19 25 27 25 7 0 13
9 13 20 0 11 5 20 10 20 6 0 10 5 10 10 0 6 10 22 23 35 37 40 47 54 47 65 0
5 5 10 10 10 6 0 10 7 10 16 0 9 16 31 35 50 19 18 35 40 35 49 0 8 3 15 8 15
4 0 13 9 20 20 13 22 5 43 -33 86 -37 42 -45 53 -45 61 0 5 -9 15 -20 23 -11
8 -20 25 -20 37 0 13 -5 23 -11 23 -16 0 -39 26 -39 44 0 9 -4 16 -10 16 -5 0
-10 5 -10 11 0 7 -8 19 -18 28 -10 9 -27 31 -37 49 -11 17 -23 32 -27 32 -4 0
-8 7 -8 15 0 8 -4 15 -10 15 -5 0 -10 5 -10 10 0 6 -11 21 -25 34 -14 13 -25
30 -25 37 0 8 -9 21 -20 29 -11 8 -20 18 -20 23 0 5 -6 15 -12 22 -29 32 -38
45 -38 52 0 5 -9 15 -20 23 -11 8 -20 20 -20 28 0 7 -11 23 -25 36 -14 13 -25
30 -25 37 0 8 -9 21 -20 29 -11 8 -20 18 -20 23 0 5 -6 15 -12 22 -27 30 -38
44 -38 50 0 3 -10 17 -22 30 -38 40 -48 54 -48 65 0 5 -4 10 -10 10 -5 0 -10
8 -10 18 0 10 -9 24 -21 32 -11 8 -28 29 -36 45 -9 17 -24 37 -34 46 -11 9
-19 20 -19 23 0 4 -6 14 -12 21 -30 33 -38 45 -38 55 0 5 -4 10 -10 10 -5 0
-10 7 -10 15 0 8 -13 29 -30 47 -16 17 -30 34 -30 38 0 4 -16 25 -35 46 -19
21 -35 41 -35 45 0 5 -11 19 -25 33 -14 14 -25 34 -25 46 0 11 -6 20 -14 20
-8 0 -16 6 -19 13 -2 6 -7 -294 -11 -668z"/>
<path d="M5667 7223 c-5 -13 -13 -23 -18 -23 -5 0 -9 -5 -9 -10 0 -6 -10 -22
-22 -35 -38 -40 -48 -54 -48 -65 0 -5 -4 -10 -9 -10 -5 0 -12 -9 -16 -20 -3
-11 -19 -33 -36 -49 -16 -16 -29 -36 -29 -43 0 -7 -9 -20 -20 -28 -11 -8 -20
-18 -20 -23 0 -5 -6 -15 -12 -22 -30 -33 -38 -45 -38 -55 0 -5 -4 -10 -9 -10
-5 0 -13 -9 -16 -21 -4 -11 -20 -33 -36 -50 -16 -16 -29 -35 -29 -42 0 -7 -9
-19 -20 -27 -11 -8 -20 -18 -20 -23 0 -5 -6 -15 -12 -22 -27 -30 -38 -44 -38
-50 0 -3 -9 -15 -20 -27 -11 -12 -20 -28 -20 -35 0 -7 -7 -13 -15 -13 -8 0
-15 -7 -15 -15 0 -8 -4 -15 -9 -15 -5 0 -13 -9 -16 -21 -4 -11 -20 -33 -36
-50 -16 -16 -29 -36 -29 -44 0 -8 -3 -15 -7 -15 -5 0 -21 -21 -38 -45 -16 -25
-33 -45 -37 -45 -5 0 -8 -7 -8 -15 0 -8 -4 -15 -9 -15 -5 0 -13 -9 -16 -21 -4
-11 -20 -33 -36 -50 -16 -16 -29 -34 -29 -40 0 -5 -11 -21 -25 -35 -14 -14
-25 -29 -25 -33 0 -4 -13 -22 -30 -39 -16 -18 -30 -34 -30 -37 0 -14 -47 -75
-57 -75 -7 0 -13 -9 -13 -20 0 -12 -10 -32 -22 -45 -35 -37 -48 -54 -48 -61 0
-4 -8 -14 -18 -23 -28 -26 -49 -73 -34 -78 6 -3 12 -12 12 -22 0 -9 9 -23 20
-31 11 -8 20 -18 20 -23 0 -8 12 -24 48 -62 12 -13 22 -27 22 -30 0 -7 14 -24
48 -60 12 -13 22 -29 22 -35 0 -5 5 -10 10 -10 6 0 10 -7 10 -15 0 -9 11 -26
25 -39 14 -13 25 -30 25 -37 0 -8 9 -21 20 -29 11 -8 20 -18 20 -23 0 -8 12
-24 48 -62 12 -13 22 -29 22 -35 0 -5 5 -10 10 -10 6 0 10 -9 10 -20 0 -11 5
-20 11 -20 14 0 39 -25 39 -39 0 -6 5 -11 10 -11 6 0 10 -7 10 -16 0 -16 23
-44 36 -44 11 0 33 -34 34 -52 0 -17 18 -18 245 -18 l245 0 0 129 c0 76 4 132
10 136 6 4 10 63 10 143 0 75 7 227 15 337 8 110 15 280 15 378 0 111 4 177
10 177 6 0 10 89 10 246 0 135 5 275 10 312 12 78 9 459 -3 425z"/>
<path d="M6790 6270 l0 -360 340 0 c187 0 340 4 340 8 0 7 48 21 133 39 15 3
27 9 27 14 0 5 7 9 15 9 8 0 15 5 15 10 0 6 5 10 10 10 19 0 99 90 111 125 7
19 17 35 21 35 14 0 10 240 -4 255 -30 33 -38 45 -38 55 0 5 -4 10 -10 10 -5
0 -10 9 -10 20 0 13 -7 20 -18 20 -10 0 -24 9 -32 20 -8 11 -18 20 -23 20 -5
0 -15 7 -23 15 -9 8 -24 15 -35 15 -10 0 -19 5 -19 10 0 6 -18 10 -40 10 -22
0 -40 5 -40 10 0 6 -127 10 -360 10 l-360 0 0 -360z"/>
<path d="M2570 3860 l0 -120 370 0 370 0 0 120 0 120 -370 0 -370 0 0 -120z"/>
<path d="M4960 3860 l0 -120 305 0 305 0 0 45 c0 25 5 45 10 45 6 0 10 9 10
20 0 18 7 20 80 20 l80 0 0 55 0 55 -395 0 -395 0 0 -120z"/>
<path d="M6140 3870 l0 -110 325 0 325 0 0 110 0 110 -325 0 -325 0 0 -110z"/>
<path d="M8080 3870 l0 -110 369 0 368 0 7 53 c3 28 6 78 6 110 l0 57 -375 0
-375 0 0 -110z"/>
</g>
</svg>
